<?xml version="1.0" encoding="UTF-8"?>
<svg id="Capa_1" xmlns="http://www.w3.org/2000/svg" version="1.1" viewBox="0 0 230 230">
  <!-- Generator: Adobe Illustrator 29.8.1, SVG Export Plug-In . SVG Version: 2.1.1 Build 2)  -->
  <defs>
    <style>
      .st0 {
        fill: #d62b46;
      }
    </style>
  </defs>
  <rect width="230" height="230"/>
  <g>
    <polyline class="st0" points="118.67 101.05 113.38 101.05 110.34 105.97 115.63 105.97 118.67 101.05"/>
    <path class="st0" d="M94.2,135.92c-6.68-4.12-15.74-4.84-30.35-.96-15.58,3.52-20.78,5.75-27.6,1.25-2.62-2.22-3.56-5.8-2.86-10.93,1.62-8.36,6.03-16.41,13.84-25.35,4.37-4.65,8.41-8.65,13.75-10.25,4.09-1,3.71,2.08,3.21,2.51-.52,0-1.39.08-2.08.51-.55.41-2.07,1.72-2.15,3.5-.11,2.72,2.83,2.15,4.1.66,1.36-1.68,3.37-4.91,1.8-7.9-.67-1.07-1.82-1.8-3.26-2.07-4.88-.27-9.44,1.97-13.63,4.43-9.21,6.12-16.56,14.58-20.72,23.85-2.4,5.59-4.58,13.61-1.32,20.12,2.52,4.54,7.74,6.93,13.97,6.42,4.38-.43,9.66-1.79,13.21-2.6,3.55-.82,21.75-6.81,27.73,3.61,0,0,1.97-3.69,6.96-3.76,4.08-.36,9.97,1.14,14.26,4.15-1.43-2.07-5.48-5.1-8.86-7.19"/>
    <path class="st0" d="M65.71,100.97c-3.41-2.13-10.25,1.94-15.72,8.95-5.02,6.29-7.18,13.58-4.83,16.97,3.51,3.97,10.01-1.8,12.77-4.91l.34-.36c1.89-1.92,3.35-4.24,4.75-6.49,0,0,1.29-2.03,1.35-2.13.81-.14,1.77-.36,2.85-.66-.01.03-3.65,5.76-3.72,9.98-.03.92.02,4.69,3.78,5.8,4.99.8,8.98-2.91,12.51-6.2,0,0,.6-.55.93-.86-.09.33-.19.76-.19.76-1.47,4.87.51,5.9,1.75,6.28,3.73,1.02,8.18-4.15,8.19-4.15-.11,1.63-.45,2.99,1.35,4.06,1.69.59,3.41-.29,4.72-1.1,4.7-3.18,8.49-8.18,11.55-12.41h-1.95s-4.82,6.62-7.94,8.06c0,0-.57.25-.9.05-.4-.33-.24-1.08,0-1.55l12.02-20.01h-5.66s-.61,1-.67,1.07c-.05-.03-.13-.18-.19-.26-3.51-4.66-11.47,2.51-17.46,10.8-2.31,3.19-5.24,6.78-8.28,9.38,0,0-4.52,3.96-6.44,1.11-.7-1.19-.49-2.93-.09-4.08,2.24-6.12,6.11-11.66,10.52-15,1.24-.92,2.59-1.19,3.26-.81.64.37.74,1.27.35,1.87-1.04-.03-1.85.27-2.52.93-1.31,1.32-1.77,2.6-1.35,3.79,2.03,2.75,6.08-2.71,5.89-6.04-.07-1.19-.74-2.33-1.73-2.88-1.49-.85-3.74-.62-5.21.05-1.95.71-5.04,3.17-6.85,5.08-2.27,2.41-6.19,5.07-7.4,4.78.4-1.03,3.69-7.48.23-9.9M93.04,110.52c1.1-1.46,4.31-5.37,5.1-6.02,2.63-2.22,3.68-1.26,3.77-.57-2.45,4.22-5.35,9.03-8.08,13.37l-.85,1.24c-1.2,1.77-2.42,3.27-4.4,4.33-.26.07-.74.1-1.05-.1-.37-.24-.51-.63-.48-1.05.12-1.35,1.56-5.48,5.99-11.2h0ZM62.19,113.06l-.07.18-2.47,3.84c-1.49,1.91-3.34,4.29-5.67,5.45-.68.21-1.64.35-2.12-.23-1.03-1.17-.5-2.81-.07-4.12l.15-.47c1.24-3.22,3.2-6.04,5.1-8.66l.09-.02.02.03c1.19,2.21,3.44,3.22,5.11,3.68l.03.05s-.03.13-.1.26h0ZM64.53,108.52l-1.11,2.42c-.15.11-.39.06-.68-.01l-.49-.08c-1.53-.45-2.68-1.42-3.04-2.58-.5-2.27,1.52-4.04,2.41-4.68.85-.57,2.18-.85,2.95-.28.47.54.66,1.22.66,1.97,0,1.02-.33,2.17-.71,3.24h0Z"/>
    <path class="st0" d="M182.82,136.41c-.59.38-1.39.06-1.1-.81.76-2.18,3.79-6.71,3.79-6.71l8.38-14.28h-5.76c-.26.47-.85,1.45-.85,1.45-.26-.43-1.07-1.36-1.38-1.56-1.41-.84-3.47-.44-4.9.32-6.15,3.46-10.68,10.3-14.23,15.62,0,0-3.74,5.92-5.82,6.37-1.63.12-1.46-1.97-1.39-2.47.64-3.51,2.1-6.86,3.56-9.89,2.98-1.97,6.39-4.58,9.48-7.41,6.37-5.82,11.77-12.36,13.03-14.37-.27.04-1.06.16-1.99.19-5.24,6.88-15.56,16.65-18.73,18.12,1.43-3.27,10.6-18.85,18.4-26.31l1.24-1.14c1.9-1.77,3.87-3.6,5.4-3.88.15-.04.36-.02.55.35.06,1.39-.46,2.4-1.09,3.57l-.86,1.7s1.23-.23,2.02-.48c.92-1.69,1.96-3.57,1.59-5.82-.13-.71-.69-1.26-1.4-1.39-2.31-.42-4.86,1.23-6.9,2.55l-.09.05c-10.49,7.87-19.36,19.22-27.11,34.7-.55.41-2.73.89-3.1.66.78-1.49,1.73-3.53,2.21-5.74.09-.62.16-1.26.16-1.89,0-1.34-.34-2.63-1.59-3.5-1.5-.71-3.33-.38-4.56.16-5.54,2.2-9.68,7.63-12.68,12.11-1.6,2.83-3.21,5.88-3.65,9.37-.32,2.74.33,4.5,1.95,5.38,1.66.81,3.76-.04,4.59-.43,5.62-2.83,9.55-8.51,12.62-13.7.13-.01,1.82-.05,3.09-.37l.05.02c-.08.23-.73,2.12-.73,2.12-1.96,5.48-2.87,9.24-1.02,11.45,2.65,3.14,7.03-.11,10.6-4.38-.77,5.12,2,5.93,4.12,5.54,2.43-.63,5.13-3.12,6.38-4.39-.4,1.49-.28,4.15,1.93,4.42,1.51.27,2.64-.45,3.95-1.14,4.71-2.44,10.33-10.66,11.8-12.92h-1.92c-2.09,2.94-4.72,6.89-8.04,8.76M140.59,135.82c-.29-.43-.39-.91-.41-1.42-.04-3.08,3.41-8.54,5.87-11.62,1.02,2.28,3.34,3.55,4.74,4.13-1.74,3.69-7.71,11.66-10.2,8.91h0ZM151.77,125.28c-.18.1-3.09-.84-3.66-3.43-.48-2.22,1.12-3.97,2.68-4.85.67-.5,1.67-.68,2.41-.43.7.45.88,1.23.88,2.07,0,.51-.08,1.05-.14,1.55v.11c-.5,1.73-1.24,3.45-2.17,4.98h0ZM175.24,134.83l-.57.46c-.78.68-1.59,1.39-2.58,1.04-.27-.09-.46-.43-.51-.7-.04-1.93.87-3.73,1.75-5.47l.22-.45c2.54-4.06,5.48-8.82,9.81-12.14.73-.5,1.53-.92,2.36-.6.2.18.41.48.41.77,0,.1-.09.34-.14.44-1.2,1.85-2.35,3.81-3.47,5.7-2.18,3.72-4.46,7.58-7.29,10.96h0Z"/>
    <path class="st0" d="M175.8,93.67l-.12-.08c-2.61-1.52-5.56-2.97-8.27-4.39-6.15-3.22-11.19-2.1-13.73-1.22-1.01.34-1.93.64-1.93.64-1.89-1.99-4.99-1.79-7.28-1.25-8.24,2.25-15.88,7.77-24.08,17.34-6.04,7.5-9.77,13.97-11.76,20.37-1.54,4.3-2,10.62,1.74,14.38,3.19,3.19,7.42,2.5,10.41,1.35,6.48-3.05,12.27-9.62,15.17-17.18.7-2.23,1.48-5.4.27-7.82-.54-1.13-1.84-1.85-3.22-1.78-4.5.4-8.89,3.94-11.19,9-1.22,2.61-1.87,4.75-2.31,8.17,1.4-1.53,4.24-4.05,7.48-5.44,0,0,.44-3.27,2.68-6.21.84-1.21,2.55-3.14,4.45-2.64,1.68.54,1.09,4.96-1.13,9.23-1.65,3.14-4.15,6.27-6.68,8.44-2.25,1.83-5.56,4.02-8.48,2.33-1.82-1.04-2.76-3.2-2.57-5.99.88-7.94,4.66-14.7,10.06-22.38,5.56-7.16,11.7-14.48,19.97-18.39,1.69-.82,3.25-1,4.6-.51,0,0-7.76,4.1-11.45,11.65-.95,1.91-2.26,4.51-.94,6.81.69,1.19,1.91,1.28,2.89,1.23,4.53-1.01,7.46-5.05,9.86-8.76,1.39-2.83,2.62-5.62,2.62-8.73,0-.38-.02-.87-.05-1.25,2.17-1.1,6.61.85,6.61.85,3.16,1,8.84,5.17,11.85,6.77,2.1-2.39,3.98-4.02,4.53-4.52M151.09,92.14c-.86,9.39-8.5,14.9-10.38,15.34-1.15.22-3.09-.27-1.36-4.21,2.57-5.3,6.95-9.82,11.65-12.12.12.4.12.63.09.99h0Z"/>
    <path class="st0" d="M196.35,93.33c-3.87,2.1-7.32,3.51-12.09,3.23-.57.65-2.64,3.01-3.84,4.93,6.89,1.13,13.43-2.57,17.49-6.11,4.5-3.75,6.81-8.49,6.81-8.49,0,0-3.37,3.72-8.37,6.43"/>
  </g>
</svg>