<?xml version="1.0" encoding="UTF-8"?>
<svg id="Capa_1" xmlns="http://www.w3.org/2000/svg" version="1.1" viewBox="0 0 230 230">
  <!-- Generator: Adobe Illustrator 29.8.1, SVG Export Plug-In . SVG Version: 2.1.1 Build 2)  -->
  <defs>
    <style>
      .st0 {
        fill: #fc0;
      }

      .st1 {
        fill: #d60825;
      }
    </style>
  </defs>
  <rect width="230" height="230"/>
  <g>
    <polygon class="st0" points="214.29 93.09 214.29 136.91 15.71 136.91 15.71 93.09 214.29 93.09 214.29 93.09 214.29 93.09 214.29 93.09"/>
    <path class="st1" d="M50.63,100.96l-6.34,8.62s32.89,0,34.58,0,1.72.66.87,1.82c-.87,1.18-2.32,3.22-3.2,4.41-.45.61-1.26,1.71,1.43,1.71h14.14s2.28-3.1,4.19-5.7c2.6-3.53.23-10.87-9.07-10.87h-36.59Z"/>
    <path class="st1" d="M41.72,129.04l12.74-17.32h15.81c1.75,0,1.72.66.87,1.82-.87,1.18-2.34,3.2-3.23,4.39-.45.6-1.26,1.71,1.43,1.71h21.19c-1.76,2.41-7.48,9.39-17.74,9.39h-31.08Z"/>
    <path class="st1" d="M114.7,119.64l-6.91,9.39h-18.23s6.91-9.39,6.91-9.39h18.23Z"/>
    <polygon class="st1" points="142.63 117.52 98.04 117.52 110.23 100.96 128.46 100.96 121.47 110.45 129.6 110.45 136.59 100.96 154.82 100.96 142.63 117.52 142.63 117.52 142.63 117.52 142.63 117.52"/>
    <path class="st1" d="M141.06,119.65l-6.91,9.39h-18.22s6.91-9.39,6.91-9.39h18.22Z"/>
    <polygon class="st1" points="15.71 123.35 42.56 123.35 41.09 125.35 15.71 125.35 15.71 123.35 15.71 123.35 15.71 123.35 15.71 123.35"/>
    <polygon class="st1" points="15.71 119.65 45.29 119.65 43.82 121.64 15.71 121.64 15.71 119.65 15.71 119.65 15.71 119.65 15.71 119.65"/>
    <polygon class="st1" points="15.71 127.06 39.83 127.06 38.37 129.04 15.71 129.04 15.71 127.06 15.71 127.06 15.71 127.06 15.71 127.06"/>
    <polygon class="st1" points="214.29 125.35 187.54 125.35 189.01 123.35 214.29 123.35 214.29 125.35 214.29 125.35 214.29 125.35 214.29 125.35"/>
    <polygon class="st1" points="214.29 129.04 184.82 129.04 186.28 127.06 214.29 127.06 214.29 129.04 214.29 129.04 214.29 129.04 214.29 129.04"/>
    <polygon class="st1" points="191.73 119.65 214.29 119.65 214.29 121.64 190.27 121.64 191.73 119.65 191.73 119.65 191.73 119.65 191.73 119.65"/>
    <path class="st1" d="M180.06,100.96l-12.19,16.56h-19.31s12.19-16.56,12.2-16.56h19.3Z"/>
    <path class="st1" d="M146.99,119.65s-1.33,1.82-1.98,2.69c-2.29,3.09-.26,6.7,7.2,6.7h29.27l6.91-9.39h-41.41Z"/>
  </g>
</svg>