<?xml version="1.0" encoding="UTF-8"?>
<svg id="Capa_1" xmlns="http://www.w3.org/2000/svg" version="1.1" viewBox="0 0 230 230">
  <!-- Generator: Adobe Illustrator 29.8.1, SVG Export Plug-In . SVG Version: 2.1.1 Build 2)  -->
  <defs>
    <style>
      .st0 {
        fill: #0061a9;
      }

      .st1 {
        fill: #fff;
      }

      .st2 {
        fill: #d4351d;
      }

      .st3 {
        fill: #304489;
      }

      .st4 {
        fill: #e22821;
      }
    </style>
  </defs>
  <rect width="230" height="230"/>
  <g>
    <path class="st1" d="M28.4,95.24c-3.59,0-6.41,2.84-6.41,6.48v26.57c0,.58,0,1,.1,1.63l.02.08.07.18.09.25.19.49c1.15,2.34,3.49,3.85,5.95,3.85h28.49c3.52,0,6.5-2.97,6.5-6.47v-26.57c0-3.63-2.86-6.48-6.5-6.48h-28.49Z"/>
    <path class="st1" d="M56.7,96.18h-28.03c-3.2,0-5.75,2.58-5.75,5.72v26.2c0,.37,0,.92.18,1.47,0,.19.09.55.28.74.09.18.18.55.27.74v.19s.09,0,.09-.19c1.01,1.66,2.84,2.77,4.93,2.77h28.03c1.83,0,3.56-.92,4.57-2.4l-1.09-2.22-2.1-4.43,3.19,6.64c.73-.92,1.19-2.03,1.19-3.32v-26.2c0-3.14-2.65-5.72-5.75-5.72"/>
    <path class="st3" d="M23.1,129.57c0,.19.09.55.28.74.82,2.03,2.92,3.51,5.3,3.51h28.03c1.83,0,3.56-.92,4.57-2.4l-4.38-9.23c-.37.74-3.01,4.24-8.95,4.24-6.48,0-8.76-4.8-8.76-4.8,13.88-1.48,12.14-13.1,12.14-13.1-3.1,7.38-14.61,7.75-14.61,7.75-.45-12.37,10.96-13.1,10.96-13.1l-3.38-7.01h-15.61c-3.2,0-5.75,2.58-5.75,5.72v26.2c0,.37,0,.92.18,1.47"/>
    <path class="st2" d="M51.32,108.55s1.73,11.62-12.14,13.1c0,0,2.28,4.8,8.76,4.8,5.94,0,8.59-3.51,8.95-4.24l4.38,9.23c.73-.92,1.19-2.03,1.19-3.32v-26.2c0-3.14-2.65-5.72-5.75-5.72h-12.42l3.38,7.01s-11.41.74-10.96,13.1c0,0,11.51-.37,14.61-7.75"/>
    <path class="st1" d="M44.29,96.18l3.38,7.01s-11.41.74-10.96,13.1c0,0,11.51-.37,14.61-7.75,0,0,1.73,11.62-12.14,13.1,0,0,2.28,4.8,8.76,4.8,5.94,0,8.59-3.51,8.95-4.24l3.29,7.01c-.46.37-4.75,4.43-12.05,4.61h-.73c-7.58-.19-13.97-5.17-15.97-10.33,0,0-4.47,1.66-7.4,7.01,0,.18-.18.55-.37.74,0-.19.09-.92.18-1.3.36-2.59,1.55-8.12,5.75-11.07,0,0-1.92-7.93,3.11-14.95,4.84-6.83,11.05-7.57,11.59-7.75"/>
    <path class="st0" d="M23.1,129.57c0,.19.09.55.28.74.82,2.03,2.92,3.51,5.3,3.51h28.03c1.83,0,3.56-.92,4.57-2.4l-4.38-9.23c-.37.74-3.44,4.24-8.95,4.24-6.48,0-8.76-4.8-8.76-4.8,13.88-1.48,12.14-13.1,12.14-13.1-3.1,7.38-14.61,7.75-14.61,7.75-.45-12.37,10.96-13.1,10.96-13.1l-3.38-7.01h-15.61c-3.2,0-5.75,2.58-5.75,5.72v26.2c0,.37,0,.92.18,1.47"/>
    <path class="st4" d="M51.32,108.55s1.73,11.62-12.14,13.1c0,0,2.28,4.8,8.76,4.8,5.94,0,8.59-3.51,8.95-4.24l4.38,9.23c.73-.92,1.19-2.03,1.19-3.32v-26.2c0-3.14-2.65-5.72-5.75-5.72h-12.42l3.38,7.01s-11.41.74-10.96,13.1c0,0,11.51-.37,14.61-7.75"/>
    <path class="st1" d="M44.29,96.18l3.38,7.01s-11.41.74-10.96,13.1c0,0,11.51-.37,14.61-7.75,0,0,1.73,11.62-12.14,13.1,0,0,2.28,4.8,8.76,4.8,5.94,0,8.59-3.51,8.95-4.24l3.29,7.01c-.46.37-4.75,4.43-12.05,4.61h-.73c-7.58-.19-13.97-5.17-15.97-10.33,0,0-4.47,1.66-7.4,7.01,0,.18-.18.55-.37.74,0-.19.09-.92.18-1.3.36-2.59,1.55-8.12,5.75-11.07,0,0-1.92-7.93,3.11-14.95,4.84-6.83,11.05-7.57,11.59-7.75"/>
    <path class="st1" d="M73.14,95.24c-3.6,0-6.41,2.84-6.41,6.48v26.57c0,.62.1,1.08.29,1.66.03.28.14.67.38,1.02,1.05,2.27,3.35,3.8,5.75,3.8h128.46c3.54,0,6.41-2.9,6.41-6.47v-26.57c0-3.63-2.81-6.48-6.41-6.48H73.14Z"/>
    <path class="st4" d="M207.08,128.29c0,2.96-2.38,5.54-5.48,5.54H73.14c-2.19,0-4.11-1.48-4.93-3.32-.19-.18-.28-.56-.28-.74-.18-.55-.27-.92-.27-1.48v-26.57c0-3.14,2.46-5.54,5.48-5.54h128.46c3.1,0,5.48,2.4,5.48,5.54"/>
    <path class="st1" d="M137.05,115c0-3.14-2.09-5.54-5.2-5.54s-5.39,2.4-5.39,5.54,2.19,5.53,5.39,5.53,5.2-2.39,5.2-5.53M143.26,114.81c0,6.46-4.93,11.26-11.5,11.26s-11.42-4.8-11.42-11.07,5.03-11.26,11.69-11.26,11.23,4.8,11.23,11.07"/>
    <path class="st1" d="M186.54,104.67c.28-.37.19-.55-.18-.55h-5.84c-.27,0-.82.18-1,.55l-7.49,8.12c-.18.19-.45.19-.45-.18v-7.75c0-.37-.27-.74-.64-.74h-6.3c-.27,0-.36.18-.18.55l.37.74c.18.37.27.93.27,1.29v18.45c0,.37.28.55.64.55h5.2c.37,0,.64-.19.64-.55v-9.04c0-.37.18-.37.36-.18l6.58,9.22c.18.37.64.55,1,.55h6.21c.36,0,.46-.19.28-.55l-7.49-10.71c-.27-.37-.27-.74,0-.92l8.03-8.86h0Z"/>
    <path class="st1" d="M191.29,104.11h-2.19c-.28,0-.37.18-.18.55l.37.74c.18.37.27.93.27,1.29v18.45c0,.37.28.55.64.55h5.2c.37,0,.73-.19.73-.55v-20.3c0-.37-.37-.74-.73-.74h-4.11Z"/>
    <path class="st1" d="M84.83,117.58c0-.37.37-.74.73-.74h5.02c.36,0,.82-.19.91-.55l1.46-2.95c.18-.37,0-.74-.37-.74h-7.03c-.36,0-.73-.18-.73-.55v-3.14c0-.37.37-.55.73-.55h7.76c.36,0,.72-.37.72-.74v-2.77c0-.37-.36-.74-.72-.74h-15.25c-.36,0-.55.18-.36.55l.36.74c.09.37.27.93.27,1.29v18.45c0,.37.27.55.64.55h14.34c.36,0,.72-.19.72-.55v-3.14c0-.37-.36-.56-.72-.56h-7.76c-.36,0-.73-.37-.73-.74v-3.14h0Z"/>
    <path class="st1" d="M157.14,114.26c-1.46-.92-2.65-1.66-3.28-2.21-.55-.55-1.01-.92-1.01-1.66,0-1.29,1.28-2.03,3.11-2.03.73,0,1.28.19,1.73.36.45,0,.73.19,1.28.38.82.55,1.36.92,1.36.92.37.19.55.19.55-.18v-4.24c0-.37-.27-.74-.64-.92,0,0-.27-.18-.91-.37-.91-.18-2.65-.37-3.93-.37-6.39,0-9.13,3.14-9.13,6.46,0,2.4,1.46,4.06,3.1,5.35.82.56,1.74,1.29,2.74,1.85,1,.74,1.74,1.48,1.74,2.21,0,1.29-1.28,1.85-2.92,1.85-1.19,0-2.19-.19-3.02-.37-.45-.19-1-.55-1.37-.74l-.36-.18c-.27-.37-.55-.19-.55.18v3.88c0,.37.19.74.37.92h.18c1.28.56,3.47.74,5.48.74,5.21,0,8.95-2.4,8.95-6.09,0-2.4-1.37-4.06-3.47-5.72"/>
    <path class="st1" d="M106.46,114.44h-.82v-6.08h1.18c2.29,0,3.65,1.1,3.65,2.95,0,1.29-.82,2.22-1.46,2.59-.64.37-1.55.55-2.55.55M120.34,125.33s-6.93-8.3-7.39-8.86c.45-.18,1.18-.55,1.83-1.1,1-.56,2.46-2.4,2.46-4.8,0-3.87-3.01-5.53-5.38-6.09-1.56-.37-4.2-.56-6.39-.56-1,0-6.67.19-6.67.19-.37,0-.55.18-.37.55l.37.74c.18.37.28.93.28,1.29v18.45c0,.37.27.55.63.55h5.21c.36,0,.73-.19.73-.55v-7.57h1.46c2.19,2.77,5.93,7.57,5.93,7.57.18.37.64.55,1.09.55h6.03c.36,0,.46-.19.18-.37"/>
  </g>
</svg>