<?xml version="1.0" encoding="UTF-8"?>
<svg id="Capa_1" xmlns="http://www.w3.org/2000/svg" version="1.1" viewBox="0 0 230 230">
  <!-- Generator: Adobe Illustrator 29.8.1, SVG Export Plug-In . SVG Version: 2.1.1 Build 2)  -->
  <defs>
    <style>
      .st0 {
        fill: #fff;
      }

      .st1 {
        fill: #0069b2;
      }
    </style>
  </defs>
  <rect width="230" height="230"/>
  <g>
    <path class="st1" d="M75,85.95c19.8-6.36,40.01-8.89,40.01-8.89,0,0,20.21,2.52,40.01,8.89,18.87,6.06,41.29,16.74,41.29,34.83,0,19.79-39.57,32.16-81.3,32.16s-81.3-12.37-81.3-32.16c0-18.09,22.42-28.76,41.29-34.83h0Z"/>
    <path class="st0" d="M37,120.78c0,15.94,34.92,28.86,78,28.86s78-12.92,78-28.86c0-8.38-5.84-15.2-14.32-20.68-7.9-3.9-10.12.73-14.38-.04-5.91-1.07-8.88-5.02-16.03-7.14-5.58-1.66-9.94,1.96-13.15,3.22-2.3.91-4.43,1.8-8.63,1.82-4.93.02-3.98-4.21-2.66-6.36,2.03-3.3,5.12-6.28,7.9-8.29-9.76-2.04-16.72-2.91-16.72-2.91,0,0-1.25.16-3.42.49-1.42,3.12-2.31,4.8-3.86,8.01-2.63,5.48-5.95,10.05-10.58,9.57-2.72-.28-8.82-4.23-11.54-4.1-3.4.16-5.3,7.06-10.45,1.26-2.64-2.97-8.01-3.36-15.8,0-12.61,6.1-22.35,14.32-22.35,25.16h0Z"/>
    <path class="st1" d="M174.8,107.32s.02.05.07.05h1.03s.08-.03.08-.08l-.02-.08-.55-1.54c-.02-.05-.04-.08-.07-.08-.02,0-.04.03-.06.07l-.47,1.56s-.02.06-.02.09h0ZM174.23,109.25c0,.18.09.21.27.24.27.04.41.05.41.19,0,.07-.06.11-.16.11-.13,0-.43-.06-.9-.06-.3,0-.52.04-.67.04-.13,0-.2-.04-.2-.11,0-.19.3-.06.52-.2.17-.11.25-.34.37-.65l1.63-4.55c.05-.13.07-.21.17-.21.14,0,.16.18.25.41l1.55,4.2c.15.4.25.65.5.79.2.11.39.09.39.19,0,.08-.06.11-.17.11-.23,0-.53-.04-.91-.04-.57,0-.93.04-1.05.04s-.18-.03-.18-.11c0-.12.12-.12.33-.14.23-.02.3-.05.3-.21,0-.09-.03-.22-.1-.4l-.4-1.13c-.02-.06-.07-.07-.15-.07h-1.27s-.1.04-.11.08l-.25.78c-.11.34-.16.57-.16.68h0ZM168.23,106.6c0,.15.08.2.28.2.84,0,1.25-.28,1.25-1.12,0-.73-.37-1.22-1.02-1.22-.44,0-.51.12-.51.46v1.68h0ZM168.53,109.47c.2.04.36-.02.36.17,0,.07-.07.12-.2.12-.15,0-.29-.04-.43-.04-.03,0-.21-.02-.51-.02-.52,0-.84.05-.97.05-.15,0-.22-.05-.22-.14,0-.16.17-.11.39-.15.32-.07.33-.14.33-.54v-4.04c0-.31-.02-.37-.26-.41-.27-.05-.43,0-.43-.15,0-.1.07-.12.23-.12.17,0,.38.03.61.03.65,0,1.17-.03,1.58-.03,1.08,0,1.67.53,1.67,1.35,0,.7-.4,1.22-1.09,1.36.2.11.29.32.41.56l.6,1.22c.23.47.35.74.48.79.25.09.43.07.43.2,0,.08-.05.09-.16.09-.19,0-.41-.03-.66-.03-.15,0-.29.03-.43.03-.21,0-.24-.11-.32-.29l-.92-2c-.15-.32-.25-.4-.56-.4h-.11c-.08,0-.13.05-.13.12v1.74c0,.39,0,.47.3.54h0ZM159.62,104.48c-.24-.05-.39.02-.39-.15,0-.09.06-.12.18-.12.09,0,.6.03,1.52.03,1.21,0,1.87-.03,2-.03.28,0,.29.06.29.26v.79c0,.15-.02.22-.11.22-.17,0-.16-.32-.43-.58-.25-.26-.69-.41-1.27-.41s-.63.06-.63.54v1.46c0,.17,0,.18.17.18h.47c.48,0,.81-.1.91-.2.22-.23.12-.49.31-.49.1,0,.11.04.11.16,0,.18-.05.45-.05.82,0,.34.03.58.03.73,0,.13-.03.19-.12.19-.17,0-.14-.28-.34-.61-.17-.26-.43-.3-.86-.3h-.46c-.13,0-.17.03-.17.16v1.82c0,.53.16.56.8.56.52,0,.87-.1,1.12-.39.29-.35.4-.72.58-.72.08,0,.1.03.1.11,0,.04,0,.08,0,.13l-.11.86c-.03.23-.03.31-.22.31-.56,0-1.49-.07-2.78-.07-.5,0-.8.04-.93.04-.15,0-.23-.05-.23-.14,0-.16.17-.11.44-.14.27-.04.3-.19.3-.55v-4.04c0-.28,0-.37-.23-.41h0ZM151.58,106.61h2.32c.08,0,.13-.05.13-.12v-1.6c0-.31-.03-.37-.27-.41-.27-.05-.43,0-.43-.15,0-.07.06-.12.16-.12s.43.06,1.01.06.92-.06,1.01-.06.16.05.16.12c0,.16-.16.1-.43.15-.24.04-.27.11-.27.41v4.04c0,.4.02.47.34.54.22.04.39,0,.39.15,0,.09-.07.14-.22.14-.11,0-.44-.05-.97-.05s-.85.05-.97.05c-.15,0-.22-.05-.22-.14,0-.16.17-.11.39-.15.32-.07.34-.14.34-.54v-1.89c0-.07-.05-.12-.13-.12h-2.32c-.08,0-.13.05-.13.12v1.89c0,.4,0,.47.33.54.22.04.39,0,.39.15,0,.09-.07.14-.22.14-.11,0-.43-.05-.97-.05s-.85.05-.97.05c-.15,0-.22-.05-.22-.14,0-.16.17-.11.39-.15.32-.07.33-.14.33-.54v-4.04c0-.31-.02-.37-.26-.41-.27-.05-.43,0-.43-.15,0-.07.05-.12.15-.12s.43.06,1.01.06.92-.06,1.01-.06.15.05.15.12c0,.16-.16.1-.43.15-.24.04-.26.11-.26.41v1.61c0,.08.04.11.13.11h0ZM146.32,104.36c.08.07.15.39.15.92,0,.11-.02.16-.07.16-.09,0-.19-.14-.34-.35-.38-.52-.72-.8-1.3-.8-.47,0-.95.24-1.29.64-.4.48-.66,1.23-.66,2.05s.22,1.48.66,2.01c.36.44.75.65,1.24.65.57,0,1.01-.26,1.29-.78.21-.39.29-.64.42-.64.08,0,.11.07.11.21s-.02.3-.02.48v.08c0,.21,0,.34-.14.47-.28.26-.85.46-1.63.46s-1.51-.27-2.03-.75c-.61-.56-.96-1.39-.96-2.2s.34-1.59.99-2.17c.55-.49,1.29-.77,2.09-.77s1.38.21,1.51.32h0ZM135.37,104.48c-.24-.05-.39.02-.39-.15,0-.09.06-.12.18-.12.09,0,.6.03,1.52.03,1.21,0,1.87-.03,2-.03.28,0,.29.06.29.26v.79c0,.15-.02.22-.11.22-.17,0-.16-.32-.43-.58-.25-.26-.69-.41-1.27-.41s-.63.06-.63.54v1.46c0,.17,0,.18.17.18h.47c.48,0,.81-.1.91-.2.22-.23.12-.49.31-.49.1,0,.11.04.11.16,0,.18-.05.45-.05.82,0,.34.03.58.03.73,0,.13-.03.19-.12.19-.17,0-.14-.28-.34-.61-.17-.26-.43-.3-.86-.3h-.46c-.13,0-.17.03-.17.16v1.82c0,.53.16.56.8.56.52,0,.88-.1,1.12-.39.29-.35.4-.72.58-.72.08,0,.1.03.1.11,0,.04,0,.08,0,.13l-.11.86c-.03.23-.03.31-.22.31-.56,0-1.49-.07-2.78-.07-.5,0-.8.04-.93.04-.15,0-.23-.05-.23-.14,0-.16.17-.11.44-.14.27-.04.3-.19.3-.55v-4.04c0-.28,0-.37-.23-.41h0ZM129.94,109.51c.39,0,.74-.14.97-.38.36-.39.51-.7.62-.7.07,0,.09.04.09.1,0,.03,0,.08,0,.13l-.11.83c-.03.24-.02.3-.22.3-.48,0-1.3-.08-2.46-.08-.53,0-.85.05-.97.05-.15,0-.22-.05-.22-.14,0-.16.17-.11.39-.15.32-.07.33-.14.33-.54v-4.04c0-.29,0-.36-.24-.41-.25-.05-.4,0-.4-.15,0-.07.05-.12.14-.12.08,0,.39.07.97.07s.91-.07,1.01-.07c.1,0,.15.05.15.12,0,.16-.16.1-.43.15-.24.04-.26.11-.26.41v4.04c0,.37.22.57.65.57h0ZM119.76,109.51c.39,0,.74-.14.97-.38.36-.39.51-.7.62-.7.07,0,.09.04.09.1,0,.03,0,.08,0,.13l-.11.83c-.03.24-.02.3-.22.3-.47,0-1.3-.08-2.46-.08-.53,0-.85.05-.97.05-.15,0-.22-.05-.22-.14,0-.16.17-.11.39-.15.32-.07.33-.14.33-.54v-4.04c0-.29,0-.36-.24-.41-.25-.05-.4,0-.4-.15,0-.07.05-.12.14-.12.08,0,.39.07.97.07s.91-.07,1.02-.07c.1,0,.15.05.15.12,0,.16-.16.1-.43.15-.24.04-.26.11-.26.41v4.04c0,.37.22.57.65.57h0ZM111.65,107.14s.02.05.07.05h1.03s.08-.03.08-.08l-.02-.08-.55-1.54c-.02-.05-.04-.08-.07-.08-.02,0-.04.03-.06.07l-.47,1.56s-.02.06-.02.09h0ZM111.09,109.07c0,.18.09.21.27.24.27.04.41.05.41.19,0,.07-.06.11-.16.11-.13,0-.43-.06-.9-.06-.3,0-.52.04-.67.04-.13,0-.2-.04-.2-.11,0-.19.3-.06.52-.2.17-.11.25-.34.37-.65l1.63-4.55c.05-.13.07-.21.17-.21.14,0,.16.18.25.41l1.55,4.2c.15.4.25.65.5.79.2.11.38.09.38.19,0,.08-.06.11-.17.11-.23,0-.53-.04-.91-.04-.57,0-.92.04-1.05.04s-.18-.03-.18-.11c0-.12.12-.12.33-.14.23-.02.3-.05.3-.21,0-.09-.03-.22-.1-.4l-.4-1.13c-.02-.06-.07-.07-.15-.07h-1.27s-.1.04-.11.08l-.25.79c-.11.34-.16.57-.16.68h0ZM105.04,106.6c0,.15.08.2.28.2.84,0,1.25-.28,1.25-1.12,0-.73-.37-1.22-1.02-1.22-.44,0-.51.12-.51.46v1.68h0ZM105.34,109.47c.2.04.36-.02.36.17,0,.07-.07.12-.2.12-.15,0-.29-.04-.43-.04-.03,0-.2-.02-.51-.02-.52,0-.84.05-.97.05-.15,0-.22-.05-.22-.14,0-.16.17-.11.39-.15.32-.07.33-.14.33-.54v-4.04c0-.31-.02-.37-.26-.41-.27-.05-.43,0-.43-.15,0-.1.07-.12.23-.12.17,0,.38.03.61.03.65,0,1.17-.03,1.58-.03,1.08,0,1.67.53,1.67,1.35,0,.7-.4,1.22-1.09,1.36.2.11.29.32.41.56l.6,1.22c.23.47.35.74.48.79.25.09.43.07.43.2,0,.08-.05.09-.16.09-.19,0-.41-.03-.66-.03-.15,0-.29.03-.43.03-.2,0-.24-.11-.32-.29l-.92-2c-.15-.32-.25-.4-.56-.4h-.11c-.08,0-.13.05-.13.12v1.74c0,.39,0,.47.3.54h0ZM99.09,104.62v4.31c0,.4,0,.47.33.54.22.04.39,0,.39.15,0,.09-.07.14-.22.14-.21,0-.53-.06-.97-.06s-.75.06-.97.06c-.15,0-.22-.05-.22-.14,0-.16.17-.11.39-.15.32-.07.33-.14.33-.54v-4.3c0-.07-.05-.12-.13-.12h-.29c-.43,0-.69.11-.96.49-.21.29-.31.53-.46.53-.07,0-.11-.06-.11-.15,0-.07.02-.12.04-.19l.26-.9c.07-.26.07-.4.2-.4.12,0,.11.25.23.3.15.07.65.08,1.51.08h.57c.85,0,1.36,0,1.52-.09.17-.1.24-.29.33-.29.08,0,.11.04.11.15l-.06,1.21c0,.2-.03.28-.14.28-.19,0-.17-.31-.29-.57-.2-.44-.51-.44-1.11-.44h-.16c-.08,0-.13.04-.13.11h0ZM89.42,105.12s-.03.04-.03.1v3.45c0,.64.04.84.45.84h.13c.13,0,.2.03.2.11,0,.1-.09.15-.27.15-.2,0-.43-.04-.7-.04-.25,0-.47.04-.65.04s-.25-.05-.25-.15c0-.09.06-.12.19-.12h.09c.43,0,.46-.24.46-.94v-3.66c0-.29-.02-.37-.25-.41-.28-.05-.43,0-.43-.15,0-.08.05-.12.15-.12h1.34s.09,0,.15.09l2.73,3.84s.06-.04.06-.09v-2.76c0-.26,0-.46-.03-.6-.04-.19-.23-.22-.56-.22-.11,0-.18-.05-.18-.12,0-.08.08-.13.26-.13.21,0,.44.03.7.03s.48-.03.63-.03.23.06.23.14c0,.09-.04.11-.13.11h-.12c-.38,0-.41.26-.41.89v4.44c0,.11-.07.22-.16.22-.06,0-.12-.04-.18-.14l-3.37-4.73h-.02ZM80.83,104.58c-.24-.05-.39.02-.39-.15,0-.09.06-.12.18-.12.09,0,.6.03,1.52.03,1.21,0,1.87-.03,2-.03.28,0,.29.06.29.26v.79c0,.15-.03.22-.11.22-.17,0-.16-.32-.43-.58-.25-.26-.69-.41-1.27-.41s-.63.06-.63.54v1.46c0,.17,0,.18.17.18h.47c.48,0,.81-.1.91-.2.22-.23.12-.49.31-.49.1,0,.11.04.11.16,0,.18-.05.45-.05.82,0,.34.03.58.03.73,0,.13-.03.19-.12.19-.17,0-.14-.28-.34-.61-.17-.27-.43-.3-.86-.3h-.46c-.13,0-.17.03-.17.16v1.82c0,.53.16.56.8.56.52,0,.88-.1,1.12-.39.29-.35.4-.72.58-.72.08,0,.1.03.1.11,0,.04,0,.08,0,.13l-.11.86c-.03.23-.03.31-.22.31-.56,0-1.49-.07-2.78-.07-.5,0-.8.04-.92.04-.15,0-.23-.05-.23-.14,0-.16.17-.11.44-.14.27-.03.3-.18.3-.55v-4.04c0-.28,0-.37-.23-.41h0ZM76.43,104.36c.08.07.15.39.15.92,0,.11-.02.16-.07.16-.09,0-.19-.14-.34-.35-.38-.52-.72-.8-1.3-.8-.47,0-.95.24-1.29.64-.4.48-.66,1.23-.66,2.05s.22,1.48.65,2.01c.36.44.75.65,1.24.65.57,0,1.01-.26,1.29-.78.21-.39.29-.64.42-.64.08,0,.11.07.11.21s-.02.3-.02.48v.08c0,.21,0,.34-.14.47-.28.26-.85.46-1.63.46s-1.51-.27-2.03-.75c-.61-.56-.96-1.39-.96-2.2s.34-1.59.99-2.17c.55-.49,1.28-.77,2.09-.77s1.37.21,1.51.32h0Z"/>
    <path class="st1" d="M57.38,121.26c.29,0,.43-.08.43-.29,0-.08-.03-.25-.1-.42l-2.13-6.62c-.1-.29-.16-.46-.26-.46s-.2.17-.29.5l-2,6.79c-.03.13-.06.21-.06.29,0,.17.1.21.36.21h4.06ZM70.75,126.34c.79,0,.92.82,1.27,2.25.44,1.8,1.02,2.49,2.31,2.49,1.21,0,1.92-.77,1.92-1.94,0-1.06-.56-1.83-1.67-2.6-1.27-.87-2.42-1.43-3.15-2.28-.92-1.06-1.35-2.23-1.35-3.74,0-3.37,2.12-5.46,5.98-5.46,2.17,0,3.67.56,4,.8.25.19.23.56.25,1.14l.04,1.99c0,.72-.33,1.11-.9,1.11s-.83-.48-1.19-1.3c-.54-1.22-.94-1.94-1.85-1.94s-1.48.69-1.48,1.59c0,.82.52,1.54,1.58,2.15,1.27.72,2.5,1.17,3.42,2.44.67.93,1,2.12,1,3.5,0,3.63-2.37,6.2-6.27,6.2-1.92,0-3.42-.45-4.23-.93-.69-.4-.69-.74-.69-1.72v-2.15c0-1.09.31-1.62,1-1.62h0ZM90.54,128.22c0,1.78.02,2.09.6,2.28.69.21,1.37.11,1.37.9,0,.61-.33.85-1.02.85-.4,0-1.48-.13-3.27-.13s-2.9.13-3.29.13c-.69,0-1.02-.24-1.02-.85,0-.8.69-.69,1.37-.9.58-.19.6-.48.6-1.96v-9.73c0-1.19,0-1.22-.96-1.22-.77,0-1.17.4-1.6,1.19-.44.82-.67,1.56-1.35,1.56-.46,0-.75-.4-.75-1.03,0-.16,0-.32.04-.48l.83-3.39c.17-.66.4-1.01.79-1.01.52,0,.69.45,1.02.82.35.4.94.42,1.79.42h5.44c1.08,0,1.75-.05,2-.35.46-.53.71-1.03,1.21-1.03s.79.42.79,1.22v3.47c0,.93-.29,1.35-.94,1.35s-.79-.56-1.08-1.48c-.29-.93-.46-1.33-1.46-1.33-1.08,0-1.12.16-1.12,1.19v9.49h0ZM105.09,130.79c1.15,0,2.04-.64,2.5-1.72.4-.93.4-2.25.4-4.16v-4.43c0-2.23,0-2.92-.56-3.18-.42-.21-1.29.03-1.29-.88,0-.61.31-.87.96-.87.44,0,.98.11,1.67.11.73,0,1.31-.11,1.75-.11.65,0,.94.27.94.87,0,.9-.85.66-1.27.88-.56.26-.56.95-.56,3.18v5.59c0,1.96-.04,3.42-.83,4.61-.98,1.43-2.67,2.07-5.12,2.07s-4.08-.64-5.12-1.99c-.79-1.03-.83-2.41-.83-4.27v-7.42c0-1.09-.04-1.54-.56-1.78-.48-.21-1.27,0-1.27-.88,0-.61.29-.87.94-.87.31,0,1.35.13,3.17.13s2.79-.13,3.19-.13c.73,0,1.04.21,1.04.82,0,.88-.69.69-1.35.95-.6.24-.6.74-.6,2.25v6.28c0,3.45.58,4.93,2.85,4.93h0ZM113.22,117.24c-.63-.13-1.02-.16-1.02-.82,0-.61.27-.9.88-.9.42,0,1.42.16,2.98.16,1.65,0,3.23-.27,4.75-.27,3.65,0,5.52,1.67,5.52,4.64,0,1.83-.98,3.29-2.79,4.03.48.27.81.66,1,1.22l1.33,3.71c.31.85.69,1.35,1.35,1.56.5.16.9.19.9.85s-.27.82-.88.82c-.19,0-.83-.11-2-.11-1.56,0-2.46.13-2.69.13-.58,0-.69-.48-.98-1.4l-1.6-5.12c-.15-.45-.37-.61-.81-.61-.21,0-.44.03-.73.08v3.87c0,1.09.02,1.3.62,1.46.56.16.81.4.81.93s-.27.77-.83.77c-.17,0-1.12-.13-2.87-.13s-2.81.13-3.08.13c-.6,0-.88-.24-.88-.85,0-.66.4-.72,1.02-.85.58-.13.67-.34.67-1.46v-10.39c0-1.11-.08-1.33-.67-1.46h0ZM118.4,121.83c0,1.01,0,1.38.71,1.38,1.31,0,2.1-.95,2.1-2.62,0-1.99-.87-3.26-2.1-3.26-.58,0-.71.27-.71,1.3v3.21h0ZM130.12,117.24c-.67-.13-1.1-.16-1.1-.82,0-.61.31-.87.96-.87.31,0,1.35.13,3.17.13s2.79-.13,3.19-.13c.73,0,1.04.21,1.04.82,0,.72-.44.74-1.19.88-.65.13-.79.29-.79,1.46v10.39c0,1.17.12,1.33.77,1.46.71.13,1.15.19,1.15.85,0,.61-.31.85-.98.85-.35,0-1.44-.13-3.21-.13s-2.83.13-3.19.13c-.67,0-.98-.24-.98-.85,0-.66.44-.72,1.15-.85.65-.13.75-.29.75-1.46v-10.39c0-1.14-.1-1.33-.73-1.46h0ZM144.64,115.04h1.56c.75,0,.94.34,1.12.98l3.65,12.59c.31,1.06.46,1.72,1,2.04.54.29,1,.34,1,.93,0,.5-.25.69-.75.69-.54,0-1.6-.19-3.21-.19-1.42,0-2.37.24-2.92.24s-.85-.34-.85-.77c0-.4.19-.61.56-.69.58-.11.9-.19.9-.61,0-.16-.12-1.09-.52-2.23-.17-.5-.54-.56-1.35-.56h-1.94c-.79,0-1.12.05-1.29.61-.19.61-.27,1.3-.27,1.64,0,.66.54,1.06.83,1.06.25,0,.67.37.67.82,0,.48-.19.66-.58.66-.25,0-.85-.13-1.85-.13s-1.52.11-1.71.11c-.44,0-.65-.19-.65-.69,0-.48.19-.66.6-.85.56-.27.75-.58.98-1.35l3.85-13.26c.23-.8.54-1.06,1.17-1.06h0ZM145.49,125.43l-1.48-5.54-1.67,5.54h3.14ZM158.23,130.5c.35.21,1.33-.03,1.33.9,0,.61-.31.85-.98.85-.44,0-1.1-.11-1.98-.11-.67,0-1.21.11-1.65.11-.67,0-.98-.24-.98-.85,0-.93.98-.69,1.33-.9.6-.34.69-1.4.69-3.71v-7.85c0-1.14-.04-1.46-.52-1.64-.54-.19-1.17-.05-1.17-.88,0-.61.25-.87.85-.87.33,0,1.31.13,2.96.13,1.25,0,2.02-.05,2.31-.05.54,0,.79.13,1.08.66l4.73,8.59v-5.54c0-1.38-.02-1.96-.65-2.09-.62-.13-1.06-.13-1.06-.82,0-.61.29-.87.87-.87.42,0,.98.11,1.75.11.73,0,1.27-.11,1.67-.11.58,0,.85.27.85.87,0,.9-.83.69-1.17.88-.58.34-.62,1.35-.62,3.71v10.53c0,.87-.19,1.01-1.02,1.01h-1.27c-.81,0-1.06-.56-1.46-1.27l-6.62-11.85v7.37c0,2.31.1,3.37.71,3.71h0ZM175.68,114.93h1.56c.75,0,.94.34,1.12.98l3.65,12.59c.31,1.06.46,1.72,1,2.04.54.29,1,.34,1,.93,0,.5-.25.69-.75.69-.54,0-1.6-.19-3.21-.19-1.42,0-2.37.24-2.92.24s-.85-.34-.85-.77c0-.4.19-.61.56-.69.58-.11.9-.19.9-.61,0-.16-.13-1.09-.52-2.23-.17-.5-.54-.56-1.35-.56h-1.94c-.79,0-1.12.05-1.29.61-.19.61-.27,1.3-.27,1.64,0,.66.54,1.06.83,1.06.25,0,.67.37.67.82,0,.48-.19.66-.58.66-.25,0-.85-.13-1.85-.13s-1.52.11-1.71.11c-.44,0-.65-.19-.65-.69,0-.48.19-.66.6-.85.56-.26.75-.58.98-1.35l3.85-13.26c.23-.8.54-1.06,1.17-1.06h0ZM176.53,125.32l-1.48-5.54-1.67,5.54h3.15ZM57.58,105.22c.95,0,1.08.25,1.54,1.67l6.48,20.12c.59,1.87,1.08,2.96,2.09,3.46.62.33,1.54.04,1.54,1.04,0,.5-.33.75-.98.75-.72,0-2.16-.29-4.39-.29-2.03,0-3.6.38-4.68.38-.65,0-.95-.29-.95-.83,0-.58.29-.83.92-.96.82-.17,1.24-.17,1.24-1.04,0-.17-.03-.46-.13-.75l-1.37-4.62c-.26-.87-1.05-.92-2.72-.92h-2.09c-1.57,0-1.93.12-2.26,1.37-.46,1.67-.72,2.87-.72,3.71,0,.96.33,1.37,1.18,1.79,1.21.62,2.06.42,2.06,1.42,0,.54-.26.83-.82.83-.23,0-1.44-.29-3.7-.29-1.73,0-2.65.29-2.82.29-.52,0-.82-.25-.82-.79,0-.96.65-.88,1.41-1.29.65-.37,1.11-1.12,1.51-2.37l6.81-21.04c.46-1.42.82-1.62,1.67-1.62h0Z"/>
  </g>
</svg>