<?xml version="1.0" encoding="UTF-8"?>
<svg id="Capa_1" xmlns="http://www.w3.org/2000/svg" version="1.1" viewBox="0 0 230 230">
  <!-- Generator: Adobe Illustrator 29.8.1, SVG Export Plug-In . SVG Version: 2.1.1 Build 2)  -->
  <defs>
    <style>
      .st0 {
        fill: #fff;
      }

      .st1 {
        fill: #0059a2;
      }
    </style>
  </defs>
  <rect width="230" height="230"/>
  <g>
    <polygon class="st1" points="27.04 85.71 202.96 85.71 202.96 144.29 27.04 144.29 27.04 85.71 27.04 85.71 27.04 85.71"/>
    <path class="st0" d="M166.65,119.49l2.25-9.74h3.91l-1.53,6.79c.01.06.05.13.12.14h5.69l-.65,2.8h-9.79Z"/>
    <path class="st0" d="M111.2,112.86l.84-3.1h12.11l-.79,3.05h-4.01l-.07.09-1.82,6.61h-3.91l1.76-6.47c.03-.09-.04-.17-.15-.18h-3.96Z"/>
    <path class="st0" d="M93.64,119.51h-3.9l1.36-5.12s-.04-.02-.07-.02l-4.15,5.14h-2.15l-1.26-5.24s-.03-.05-.05-.05c-.02,0-.07.03-.1.12-.03.1-1.41,5.17-1.41,5.17h-3.21l2.7-9.75h5.21l1.02,4.19,3.39-4.19h5.32l-2.68,9.75h0Z"/>
    <path class="st0" d="M54.49,118.17l-4.54-15.06-5.78,19.34h.91s.32-.99.6-1.89c1.32-4.32,3.01-6.01,5.51-5.09.62.23,1.51,1.05,2.01,1.87.43.7,1.08,1.91,1.29,2.86.21-.94.86-2.16,1.29-2.86.51-.83,1.39-1.64,2.01-1.87,2.5-.92,4.19.77,5.51,5.09.28.9.6,1.89.6,1.89h.91l-5.78-19.34-4.54,15.06h0Z"/>
    <path class="st0" d="M110.51,112.07c-2.05-2.59-5.59-2.84-8.7-2.28-2.39.55-5.2,2.3-5.69,4.94-.24,1.53.5,2.86,1.78,3.64,1.67.98,3.69,1.27,5.74,1.19,1.43-.14,2.93-.51,4.22-1.21,1.28-.7,2.35-1.73,2.9-3.19.4-.95.35-2.23-.25-3.07h0ZM101.73,116.86c-.52-.18-1.04-.68-1.11-1.23-.09-1.25.56-2.42,1.68-3.02,1.05-.64,2.76-.66,3.78.05.29.18.54.48.65.78.22,1.05-.26,2.03-1.09,2.7-1.04.87-2.59,1.25-3.9.72h0Z"/>
    <path class="st0" d="M137.29,112.07c-2.05-2.59-5.59-2.84-8.7-2.28-2.39.55-5.2,2.3-5.69,4.94-.24,1.53.5,2.86,1.78,3.64,1.67.98,3.69,1.27,5.74,1.19,1.43-.14,2.93-.51,4.22-1.21,1.28-.7,2.35-1.73,2.9-3.19.4-.95.35-2.23-.25-3.07h0ZM128.51,116.86c-.51-.18-1.04-.68-1.11-1.23-.09-1.25.56-2.42,1.68-3.02,1.05-.64,2.76-.66,3.78.05.29.18.54.48.65.78.22,1.05-.26,2.03-1.09,2.7-1.04.87-2.59,1.25-3.9.72h0Z"/>
    <path class="st0" d="M151.25,110.6c-.5-.5-1.28-.84-2.09-.84h-9.19c-.8,3.22-1.65,6.52-2.42,9.75h3.69l.68-2.86.08-.03h3.09c.53.02.73.37.74.76l-.13,1.28c0,.17.02.34.08.48.09.18.28.33.47.37h4.38c-.25-.21-.53-.52-.52-.88.04-.72.32-1.48.14-2.24-.11-.56-.7-.9-1.18-1.11-.07-.05.01-.1.05-.14,1-.37,2.1-1.1,2.51-2.16.32-.77.23-1.79-.39-2.39h0ZM147.45,113.54c-.28.28-.54.39-.9.45h-3.87l.39-1.7h1.7s2.4-.02,2.4-.02c.15.02.4.18.49.39.12.32.01.66-.22.88h0Z"/>
    <path class="st0" d="M166.13,112.07c-2.05-2.59-5.59-2.84-8.7-2.28-2.39.55-5.2,2.3-5.69,4.94-.24,1.53.5,2.86,1.78,3.64,1.67.98,3.69,1.27,5.74,1.19,1.43-.14,2.93-.51,4.22-1.21,1.28-.7,2.35-1.73,2.9-3.19.4-.95.35-2.23-.25-3.07h0ZM157.36,116.86c-.52-.18-1.04-.68-1.11-1.23-.09-1.25.56-2.42,1.68-3.02,1.05-.64,2.76-.66,3.78.05.29.18.54.48.65.78.22,1.05-.26,2.03-1.09,2.7-1.04.87-2.59,1.25-3.9.72h0Z"/>
    <path class="st0" d="M188.39,109.76h-4.87l-6.32,9.75h3.26l1.18-1.74h4.51s.06.03.07.07l.4,1.67h4.03l-2.25-9.75h0ZM184.95,112.85s.07,0,.08.02l.58,2.41h-2.31l1.65-2.44h0Z"/>
    <path class="st0" d="M54.49,99.87c-8.35,0-15.13,6.77-15.13,15.13s6.77,15.13,15.13,15.13,15.13-6.86,15.13-15.13-6.77-15.13-15.13-15.13h0ZM54.49,129.41c-7.96,0-14.41-6.45-14.41-14.41s6.45-14.41,14.41-14.41,14.41,6.45,14.41,14.41-6.45,14.41-14.41,14.41h0Z"/>
  </g>
</svg>