<?xml version="1.0" encoding="UTF-8"?>
<svg id="Capa_1" xmlns="http://www.w3.org/2000/svg" version="1.1" viewBox="0 0 230 230">
  <!-- Generator: Adobe Illustrator 29.8.1, SVG Export Plug-In . SVG Version: 2.1.1 Build 2)  -->
  <defs>
    <style>
      .st0 {
        fill: #1d1d1b;
      }

      .st1 {
        fill: #fff;
      }

      .st2 {
        fill: #e63027;
      }
    </style>
  </defs>
  <rect width="230" height="230"/>
  <g>
    <polygon class="st1" points="40.74 65.31 189.26 65.31 189.26 164.69 40.74 164.69 40.74 65.31 40.74 65.31 40.74 65.31"/>
    <polygon class="st2" points="42.69 66.84 186.95 67.16 186.95 124.41 115.06 94.52 42.69 123.51 42.69 66.84 42.69 66.84 42.69 66.84"/>
    <path class="st0" d="M159.88,134.99v3.16c.51-1.8,1.24-2.72,2.11-3.16,2.11-1.09,4.71-.07,5.37,1.94.75,2.26.15,4.18-.9,5.17-.39.39-1.31.75-1.92.75-2.23,0-3.3-1.05-3.11-3.35.12-1.34-1.46.49-1.55.82v18.77h2.86v2.84h-10.88v-2.84h2.14v-20.98h-2.14v-3.13h8.01ZM98.41,134.99v3.16c.51-1.8,1.24-2.72,2.09-3.16,2.14-1.09,4.71-.07,5.37,1.94.75,2.26.17,4.18-.87,5.17-.39.39-1.34.75-1.94.75-2.23,0-3.3-1.05-3.08-3.35.1-1.34-1.48.49-1.55.82v18.77h2.84v2.84h-10.88v-2.84h2.14v-20.98h-2.14v-3.13h8.04ZM143.73,134.27c1.65,0,3.13.51,4.52,1.72,1.36,1.04,2.48,2.82,3.2,4.93.78,2.26,1.02,4.56,1.02,7.19,0,3.67-.61,6.82-1.99,9.3-1.6,3.13-3.88,4.54-6.75,4.54s-5-1.41-6.51-4.03c-1.5-2.79-2.23-6.14-2.23-9.66,0-3.84.73-6.99,2.36-9.78,1.51-2.82,3.62-4.2,6.39-4.2h0ZM143.78,136.69c-.58,0-1.07.34-1.43,1-.29.68-.58,2.16-.68,4.15-.19,1.99-.19,4.78-.19,8.43,0,1.8.1,3.62.19,5.29.1,1.33.39,2.31.78,2.96.27.66.75,1,1.24,1s.87-.34,1.14-.66c.39-.68.68-1.51.8-2.65.27-1.65.36-5.12.36-10.25,0-2.96-.1-5.12-.29-6.29-.19-1-.56-1.99-.95-2.48-.19-.32-.58-.51-.97-.51h0ZM175.9,134.27c1.65,0,3.13.51,4.52,1.72,1.36,1.04,2.48,2.82,3.2,4.93.78,2.26,1.04,4.56,1.04,7.19,0,3.67-.63,6.82-2.01,9.3-1.6,3.13-3.88,4.54-6.75,4.54s-5-1.41-6.51-4.03c-1.51-2.79-2.23-6.14-2.23-9.66,0-3.84.73-6.99,2.36-9.78,1.51-2.82,3.62-4.2,6.39-4.2h0ZM175.95,136.69c-.58,0-1.07.34-1.43,1-.29.68-.58,2.16-.68,4.15-.17,1.99-.17,4.78-.17,8.43,0,1.8.07,3.62.17,5.29.1,1.33.39,2.31.78,2.96.27.66.75,1,1.24,1s.87-.34,1.14-.66c.39-.68.68-1.51.8-2.65.27-1.65.36-5.12.36-10.25,0-2.96-.1-5.12-.29-6.29-.19-1-.56-1.99-.95-2.48-.19-.32-.58-.51-.97-.51h0ZM123.73,125.57v13.01c.92-1.97,2.23-2.38,3.76-2.4,4.93-.12,6.51,7.53,6.48,12.41,0,6.07-1.82,13.84-6.05,13.84-1.55,0-3.28-.51-3.71-1.7l-.49,1.21-8.35-.02.02-2.82h2.11v-30.69h-2.14v-2.84h8.35ZM123.73,142.5v9.66c0,2.04,0,3.33.07,3.91.1.87.22,1.6.51,2.19.27.58.7.85,1.12.85.34,0,.7-.27.97-.7.29-.46.49-1.31.73-2.6.12-1.46.27-3.76.27-7.24s-.22-5.63-.63-6.94c-.29-.87-.7-1.29-1.19-1.29-.66,0-1.26.7-1.84,2.16h0ZM113.43,125.57v33.53h1.46v2.84h-9.69v-2.84h1.63v-30.69h-1.63v-2.84h8.23ZM81.65,160.56c-2.52,2.55-5.8,1.75-7.21,1-3.84-1.97-4.2-10.85-1.43-13.06,2.45-1.89,4.44-2.21,7.62-1.34v-8.28c0-.95-.63-2.45-2.06-2.45-1.26,0-2.16.34-2.16.95,0,.9,1.92,1.36,1.82,3.88-.07,1.53-.9,3.54-3.16,3.54-2.14,0-3.64-2.09-3.64-3.74,0-4.86,3.52-6.34,8.89-6.34,3.04,0,6.85,2.11,6.85,5.75l.05,17c0,.22.1,1.24.83.95.24-.1.87-.7,1.09-1.07l1.17,2.65c-.63,1.21-2.89,2.48-4.93,2.48s-2.82-.85-3.71-1.92h0ZM80.8,157.72v-8.18c-1.43-.51-2.4.53-2.89,1.84-.63,1.8-.46,4.37.15,6.17.49,1.38,2.16,1.26,2.74.17h0ZM57.88,148.66l2.6-23.09h10.71v2.84l-1.85.02v30.66h1.85v2.84h-10.71v-2.84h1.68v-18.82l-3.52,21.66h-5.24l-3.35-21.63v18.79h1.58v2.84h-7.33v-2.84h1.85l-.02-30.69h-1.82v-2.84h9.37l4.22,23.09h0Z"/>
  </g>
</svg>