<?xml version="1.0" encoding="UTF-8"?>
<svg id="Capa_1" xmlns="http://www.w3.org/2000/svg" version="1.1" viewBox="0 0 230 230">
  <!-- Generator: Adobe Illustrator 29.8.1, SVG Export Plug-In . SVG Version: 2.1.1 Build 2)  -->
  <defs>
    <style>
      .st0 {
        fill: #ffe600;
      }

      .st1 {
        stroke: #e51f2e;
        stroke-miterlimit: 2.61;
        stroke-width: .09px;
      }

      .st1, .st2 {
        fill: #e51f2e;
      }
    </style>
  </defs>
  <rect width="230" height="230"/>
  <g>
    <path class="st1" d="M197.44,122.16c.27,0,1.55.02,1.55,1.35,0,.66-.5,1.04-1.05,1.14v-.07c.24.03.44.28.56.54l.85,1.96h-.7l-.83-1.83c-.11-.25-.18-.41-.59-.41h-.56v2.23h-.65v-4.93h1.42ZM196.67,124.29h.6c.7,0,1.04-.41,1.04-.78,0-.29-.08-.78-.9-.78h-.75v1.56h0ZM197.53,120.41h0c2.3,0,4.18,1.88,4.18,4.18s-1.88,4.18-4.18,4.18-4.18-1.88-4.18-4.18,1.88-4.18,4.18-4.18h0ZM197.53,128.21h0c2.02,0,3.62-1.6,3.62-3.62s-1.6-3.62-3.62-3.62-3.62,1.6-3.62,3.62,1.6,3.62,3.62,3.62h0Z"/>
    <path class="st0" d="M54.37,89.76c-.67-.61-1.05-1.31-1.26-1.9-.21-.61-.48-1.36-.48-2.01.01-2.9,1.71-5.06,3.53-6.05.83-.45,1.14-.76,1.26-.92-.06-.02-.14-.05-.19-.05-2.48,0-3.75-.96-4.38-1.78-.59-.76-.89-1.75-.89-2.83,0-.52.07-1.07.22-1.63.7-1.16,1.36-.84,1.77-.25.26.37,2.04,1.63,4.22,1.83,1.59.15,2.45.93,2.9,1.55.51.72.71,1.59.71,2.33,0,.3-.03.59-.1.84-.24.97-1.27,1.85-2.69,2.97l-.81.67c-1.19,1.04-1.84,2.19-1.84,3.17,0,.24.04.48.13.7.03.09.07.18.12.26.53.9,2.03,1.46,4.2.7,1-.35,2.94-1.57,4.12-2.74,1.39-1.39,3.24-1.72,5.03-1.86,1.55-.12,2.5-.5,3.17-1.25,1.98-2.24,3.89-2.55,5.68-2.68.68-.05.72-.1.81-.22.98-1.31,2-2.01,2.9-2.41.69-.31,1.32-.45,1.84-.56l.63-.15.16-.05c.99-.32,1.76-.59,3.79-1.95l.09-.05h0s.08-.05.08-.05h0s.08-.05.08-.05h0s.08-.05.08-.05h0s.09-.05.09-.05h0s.08-.05.08-.05h0s.09-.04.09-.04h0s.09-.04.09-.04h0s.09-.04.09-.04h0s.09-.04.09-.04h0s.09-.03.09-.03h0s.09-.03.09-.03l.09-.03h0s.08-.03.08-.03h0s.09-.03.09-.03h0s.08-.03.08-.03h0s.09-.02.09-.02h0s.08-.02.08-.02h0s.09-.02.09-.02h0s.08-.02.08-.02h0s.08-.02.08-.02h0s.08-.01.08-.01h0s.08-.01.08-.01h0s.08-.01.08-.01h0s.08,0,.08,0h0s.08,0,.08,0h0s.08,0,.08,0h0s.08,0,.08,0h.09s0,0,0,0h.08s.09,0,.09,0h.09s.01,0,.01,0h0c.06,0,.12,0,.18,0h.08s.01,0,.01,0h.08s.01,0,.01,0h.08s.01,0,.01,0h.08s.01,0,.01,0h.08s.01.01.01.01h.08s.01.01.01.01h.08s.01.01.01.01h.08s.01.01.01.01h.08s.01.02.01.02h.08s.01.02.01.02c.12.02.24.05.36.08l.07.02h.01c.12.03.23.07.35.1l.07.02h.02c.23.08.45.16.66.24l.06.02.08.03c4.33-5.88,11.17-9.79,18.94-10.14h0c.13,0,.26-.01.38-.01.13,0,.26,0,.38,0,.13,0,.26,0,.39,0s.25,0,.38,0c.13,0,.25,0,.38,0,.13,0,.25,0,.38.01h0c.12,0,.25.01.38.02h0c7.52.45,14.15,4.24,18.42,9.91.61-.21,1.27-.37,1.95-.41h.02s.06,0,.06,0h.07s.02,0,.02,0h.02s.07,0,.07,0h.02s.07,0,.07,0h.02s.07,0,.07,0h.08s.02,0,.02,0h.08s.07,0,.07,0h.02s.07,0,.07,0h.02s.07,0,.07,0h.01s.07,0,.07,0h.01s.07,0,.07,0h.01c.16.02.33.04.49.08l.07.02h0s.07.02.07.02h0s.07.02.07.02h0s.07.02.07.02h0s.07.02.07.02h0s.07.02.07.02h0s.07.03.07.03h0s.08.03.08.03l.07.03h0s.08.03.08.03h0s.08.03.08.03h0c.13.06.26.12.39.19h0s.08.04.08.04h0s.08.04.08.04h0s.08.05.08.05h0s.08.05.08.05h0s.08.05.08.05c1.4.95,2.2,1.36,2.89,1.64.31.12.6.22.9.32l.16.05.63.15c.34.08.74.16,1.16.3,1.06.35,2.34,1.02,3.57,2.67.09.12.13.17.82.22,1.78.13,3.69.45,5.68,2.68.67.75,1.61,1.13,3.16,1.25,1.8.14,3.64.47,5.03,1.86,1.18,1.17,3.11,2.39,4.12,2.74,2.17.76,3.68.2,4.19-.7.11-.19.19-.4.23-.62.02-.11.03-.23.03-.35,0-.98-.65-2.13-1.84-3.17l-.15-.12-.67-.55c-1.42-1.12-2.45-2-2.7-2.97-.07-.25-.09-.54-.09-.84,0-.74.2-1.61.71-2.33.45-.62,1.32-1.4,2.9-1.55,2.2-.2,3.97-1.46,4.23-1.83.41-.59,1.07-.91,1.77.25.15.56.22,1.11.22,1.63,0,1.08-.3,2.06-.89,2.83-.63.82-1.9,1.78-4.38,1.78-.05,0-.13.02-.19.05.12.16.43.47,1.26.92,1.82,1,3.52,3.15,3.53,6.05,0,.64-.27,1.4-.48,2.01-.19.52-.51,1.14-1.05,1.71-.06.07-.13.13-.2.19-1.03.95-2.74,1.7-5.59,1.53-.29-.02-.59-.04-.9-.08-.07,1.44-.47,3.15-1.02,4.01-.17.27-.2.45-.2.54,0,.04,0,.06,0,.07.02,0,1.26.74,1.26.74l.2.1s.12.06.13.07c.02,0,.43-.03.43-.03h.08s0-.01,0-.01c.78-.07,1.97-.46,2.48.96.13.38.21.7.29.99.16.59.29,1.03.8,1.43,0,0,.26-.22.55-.48.24-.21.5-.45.66-.61.36-.37,1.03-.18,1.51,0,.49.18,1.09.6,1.52.85.43.24.67.54.79.91.13.36.43.6.88.84.44.25,1.07,1.05,1.07,2.12,0,.16.02.31.07.46.03.1.07.2.13.32.61,1.23.12,1.86-.23,2.12-.48.36-1.32.5-2.11.38v.2s-1.15-.15-1.15-.15c-.45-.06-1.04.06-1.39.13l-.08.02c-.82.16-1.9-.11-2.5-1.1-.02-.04-.05-.07-.07-.11-.31-.54-.79-1.04-1.02-1.18-.34.09-.88.22-1.51.15-.59-.06-1.27-.29-1.97-.86-.11-.1-.23-.2-.34-.32-1.02-1.02-2.37-1.23-3.21-1.1l-.5.09c-1.04.19-2.34.43-3.54-.3-.3-.18-.73-.37-1.15-.55-1.09-.47-2.22-.96-2.37-2-.03-.18-.22-.52-.39-.79-.14-.24-.3-.5-.42-.77-.12-.26-.2-.55-.21-.84-.35.09-.71.13-1.09.11-.13,0-.26-.02-.39-.04l-.47-.07c-.8-.14-2.47-.41-3-.22-1.06.38-4.39.57-5.31.36,0,0-.34-.07-.65-.14-.3.31-.64.61-1,.87.67.04,1.26-.05,1.66.06l.84.22c.27-.08.92-.07,1.3-.04l.98.07,1.12.11c.54.11,1.11.34,1.02,1.4-.04.33-.22.79-.5,1.06-.15.17-.74,1.02-.87,1.28l-.04.08c-.23.49-.57.93-1.55.93-.12,0-.28,0-.37.02-.03.08-.11.23-.11.23-.22.5-.54,1.21-1.15,1.61l-.16.12c-.49.35-1.31.93-2.56.47l-.43-.15c-1.09-.39-2.75-.98-3.58-1.44l-.12-.06c-.78-.43-.95-.51-1.23-.47l-.16.02c-.6.08-1.72.23-2.5-1.05l-.07-.11c-3.68,5.06-9.22,8.67-15.61,9.86h-.03c-.22.05-.44.08-.66.12h-.08s-.3.06-.3.06c-.12.02-.23.03-.35.05l-.21.03-.34.04-.23.02c-.15.01-.31.03-.46.04h-.15c-.14.02-.28.03-.42.04h-.15c-.16.02-.33.02-.49.03h-.17c-.17,0-.35,0-.52,0s-.36,0-.53,0h-.16c-.16,0-.31-.01-.47-.02h-.19c-.13-.02-.26-.03-.4-.03h-.17c-.16-.02-.31-.04-.47-.05l-.23-.02-.31-.03-.17-.02c-.16-.02-.32-.04-.48-.06l-.19-.03-.34-.05-.18-.03c-.14-.02-.28-.05-.41-.07l-.3-.06-.15-.03c-.2-.04-.41-.09-.61-.14h-.05s-.32-.09-.32-.09l-.16-.04c-.19-.05-.38-.1-.57-.15l-.07-.02c-5.6-1.62-10.39-5.15-13.62-9.83l-.42.65c-.77,1.29-1.89,1.14-2.49,1.05l-.16-.02c-.28-.04-.46.05-1.23.47l-.12.06c-.83.46-2.48,1.05-3.58,1.44l-.43.15c-1.25.46-2.08-.12-2.56-.47l-.17-.12c-.61-.41-.93-1.11-1.16-1.61,0,0-.07-.15-.11-.23-.1-.01-.25-.02-.38-.02-.98,0-1.32-.45-1.55-.93l-.04-.08c-.13-.27-.71-1.12-.87-1.28-.27-.27-.46-.73-.49-1.06-.1-1.06.48-1.29,1.02-1.4l1.12-.11.99-.07c.37-.03,1.02-.04,1.29.04l.84-.22c.4-.1.99-.02,1.66-.06-.35-.26-.68-.56-1-.87-.32.07-.65.14-.65.14-.92.21-4.24.02-5.3-.36-.54-.19-2.2.08-3.01.22l-.48.07c-.52.08-1.01.05-1.47-.07-.03.6-.35,1.15-.63,1.61-.16.27-.37.6-.39.79-.14,1.03-1.28,1.52-2.37,2-.42.18-.85.37-1.15.55-1.19.73-2.5.49-3.54.3l-.51-.09c-.84-.13-2.19.08-3.21,1.1-1.56,1.56-3.12,1.22-3.82,1.02-.23.14-.72.64-1.02,1.18-.59,1.07-1.72,1.38-2.57,1.21l-.09-.02c-.35-.07-.93-.19-1.38-.13l-1.16.15v-.2c-.78.13-1.63-.02-2.1-.38-.35-.26-.84-.88-.22-2.12.15-.3.19-.5.19-.78,0-1.08.62-1.88,1.06-2.12.46-.24.76-.48.88-.84.12-.36.36-.67.79-.91.42-.24,1.03-.66,1.51-.85.48-.18,1.15-.37,1.51,0,.37.36,1.21,1.09,1.21,1.09.77-.59.7-1.28,1.1-2.42.5-1.41,1.69-1.03,2.47-.96h.09s.42.03.43.04c.02-.01.14-.07.14-.07l.19-.1s1.25-.74,1.27-.74c0-.02,0-.04,0-.07,0-.09-.03-.27-.2-.54-.56-.86-.95-2.57-1.02-4.01-.2.02-.4.04-.59.06-3.04.25-4.84-.52-5.9-1.51h0ZM168.71,96.71h-.09s.09,0,.09,0h0ZM138.08,72.79c-.16-.03-.33-.06-.49-.08l.49.08h0ZM139.36,73.25c-.13-.07-.26-.13-.39-.19l.39.19h0ZM117.84,112.83c.12-.02.24-.03.35-.05l-.35.05h0ZM116.6,112.96c.15-.01.31-.02.46-.04l-.46.04h0ZM116.03,112.99c.14,0,.28-.02.42-.03l-.42.03h0ZM115.38,113.02c.16,0,.33-.01.49-.02l-.49.02h0ZM114.17,113.02c.18,0,.35,0,.53,0s.35,0,.52,0h-1.05ZM113.54,113c.16,0,.31.01.47.02l-.47-.02h0ZM112.95,112.97c.13,0,.26.02.4.02l-.4-.02h0ZM112.31,112.92c.16.01.31.03.47.04l-.47-.04h0ZM111.12,112.77c.16.02.32.04.48.06l-.48-.06h0ZM109.99,112.58c.14.03.28.05.41.07l-.41-.07h0Z"/>
    <path class="st2" d="M92.61,81.6c-.18-.32-.1-.64.07-.95.4-.61.77.06.77.06,1.38,1.93.36,4.81.36,4.81-.14-2.66-1.21-3.92-1.21-3.92h0ZM104.52,94.36c.02-.57.07-1.82-.51-2.27-.21-.17-1.05-1.09-1.05-1.09-.13-.22-.23-.24-.23-.24-.17-.02-.4.39-.4.39-.6,1.15-1.19,1.01-1.19,1.01,0-.21.14-.45.14-.45.16-.31.86-1.69.86-1.69.09-.2.17-.47.17-.47.58-.89,1.12-.21,1.12-.21.24.47,1.54,2.02,1.54,2.02.29.34.31.71.31.71.3,2.11-.76,2.29-.76,2.29h0ZM101.11,99.75c-.25,0-.31-.1-.28-.37.16-.75.77-1.08.77-1.08,1.13-.68,1.27,0,1.27,0,.21,1.21-.75,1.36-.75,1.36-.19.07-1.01.08-1.01.08h0ZM51.96,103.25s.25.18.11.54c0,0-.63,1.73-.6,2.3,0,0-1.39.25-1.59-.44,0,0-.04-.27.19-.65,0,0,.24-.36.3-1.02,0,0-.02-1.65,1.05-1.22.21.12.38.29.54.48h0ZM53.67,100.5c.23-.19.57-.3.87-.23.68.15.27.73.27.73-.27.51-1.17,1.38-1.17,1.38-.79.59-1.42-.11-1.42-.11-.59-.58.18-.86.18-.86.45-.18,1.28-.9,1.28-.9h0ZM61.83,90.16s-.25,2.45.85,4.6c0,0,.82,1.16-.03,1.9l-1.69.98s-.23.17-.98.11c0,0-1.04-.26-1.39.2,0,0-.3.88-.68,1.61,0,0-.77,1.77-2.04,2.33,0,0-1.01.23-1.32,1.11,0,0-.33.62-.98.64,0,0-.49.16-.81,1.24,0,0-.18.7-.17,1.24,0,0,.83-.11,1.38.09,0,0,1.33.45,1.93-.65,0,0,1.15-1.98,2.01-1.68,0,0,1.72.57,2.93-.68,0,0,1.67-1.82,4.02-1.45,0,0,2.65.54,3.48-.07,0,0,1.67-.87,2.3-1.09,0,0,.77-.23.85-1.07,0,0,.47-1.18.81-1.58h-1.27s-1.15,1.91-3.09,2.49c0,0-1.06.43-3.2.08,0,0-3.07-.69-5.76,2.21,0,0-.37.53-.89.32,0,0,1.49-2.54,4.76-3.14,0,0,1.07-.23,1.96-.08,0,0,4.4.13,6.44-4.2,0,0-.22-3.69.75-4.57,0,0,.38-.12.3.6,0,0-.67,3.87.59,4.62,0,0,.73.57,2.08.36,0,0,2.05-.49,3.71-.2,0,0,2.56.61,4.76.33,0,0-.57-.87-.46-1.92,0,0,.32-.75.68-.27,0,0,.85,2.8,3.16,3.64,0,0,2.07.75,2.03,3.37,0,0-.32.36-3.06,1.33,0,0-1.02.32-1.35-.44,0,0-1.32-2.83-2.47-2.74l-2.16.18s-.74.19-.19.78c0,0,.74.98,1.04,1.57,0,0,.09.5.78.39,0,0,.96-.48,1.51,1.31,0,0,.5.9,1.34,1.18,0,0,.79.26,1.53-.15,0,0,3.57-1.31,4.19-1.77,0,0,.77-.43,1.38-.22,0,0,1.07.25,1.51-.59l1.11-1.71s.24-.42.21-.95c0,0,.1-.52-.34-1.06,0,0-.42-.44-.48-.76l-.79-1.85s-.32-.49-.67-.7l-1.05.08s.72,1.85,1.25,2.6c0,0,.72,1.1.68,1.79,0,0-.05.49-.24.69,0,0-.24.39-.34.58,0,0-.32.69-.58.85,0,0-.45.26-.56.28,0,0-.19.05-.05-.29,0,0,.59-1.24.55-1.9,0,0,.11-.69-.38-1.1,0,0-1.15-1.81-1.31-2.35,0,0-.36-.72-.55-.85,0,0-.4-.53.25-.77,0,0,1.61-.36,1.9-.56,0,0,.77-.23,1.28-1.85,0,0,.69-1.88.68-3.04,0,0,1.36,2.62-.81,5.28,0,0,1.71.5,2.42,0,0,0,2.13-.31,2.54-.43,0,0,.54-.13.23.25,0,0-.64.92-.7,1.51,0,0-.04.48-.43.76,0,0-1.21.85-1.32,1.66,0,0-.26.78.28.6,0,0,.73-.34.98,0,0,0,.07.04-.2.35,0,0-.73.63-.78,1.48,0,0,.13.98.39,1.3,0,0,.33.45.85.31,0,0,.14-.11.39-.04,0,0,.26,0,.93-.23,0,0,1.02-.28,1.35-.4,0,0,1.29-.46,1.93-.43,0,0,.41-.05.94.06,0,0,1.62.18,2.69-1.01,0,0,.82-.65,1.1-.02,0,0,1.97,2.64,5.15,1.94,0,0-2.53-1.04-3.19-2.46,0,0-.09-1.2-1.41-2.88,0,0-.41-.56-.01-.7,0,0,.23-.17.72.33,0,0,1.26,1.21,1.71,2.32,0,0,1.57,2.36,3.82,1.57,0,0-1.77-.68-2.6-1.96,0,0-.51-1.72-2.24-3.01,0,0-.07-1.94-.87-3.03,0,0-.41-1.82-.52-2.24,0,0-.44-1.6-.43-2.04,0,0,.14-2.09-1.2-3.71,0,0-.9-1.74-2.31-2.95,0,0-1.07-1.32-1.86-2.13,0,0-1.04-1.22-3.32-2.82,0,0-1.03-.75-1.79-1.56,0,0-4.02-2.89-6.92-.57,0,0-2,1.36-3.68,1.79,0,0-3.44.4-4.9,2.79,0,0-.13.44-1.51.61,0,0-3.04-.37-5.29,2.63,0,0-1.04,1.02-3.1,1.26,0,0-3.36-.34-5.55,2.23,0,0-5.52,4.82-8.82,1.69,0,0-1.71-1.62.24-4.54,0,0,1.24-1.49,3.35-3.05,0,0,1.71-1.21.93-3.08,0,0-.42-1.81-2.98-1.86,0,0-3.22-.62-4.52-2.25,0,0-1.45,5.12,4.25,5.04,0,0,1.49.22.97,1.4,0,0-.73,1.01-1.71,1.38,0,0-1.72.75-2.5,3.26,0,0-1.74,4.39,2.5,6.08,1.64.56,3.52.4,5.2.1h0Z"/>
    <path class="st2" d="M136.06,81.6c.18-.32.1-.64-.07-.95-.4-.61-.77.06-.77.06-1.38,1.93-.36,4.81-.36,4.81.14-2.66,1.21-3.92,1.21-3.92h0ZM124.14,94.36c-.02-.57-.07-1.82.51-2.27.21-.17,1.05-1.09,1.05-1.09.13-.22.23-.24.23-.24.17-.02.4.39.4.39.6,1.15,1.19,1.01,1.19,1.01,0-.21-.14-.45-.14-.45-.16-.31-.86-1.69-.86-1.69-.09-.2-.17-.47-.17-.47-.58-.89-1.12-.21-1.12-.21-.24.47-1.54,2.02-1.54,2.02-.29.34-.32.71-.32.71-.3,2.11.76,2.29.76,2.29h0ZM127.55,99.75c.25,0,.31-.1.28-.37-.17-.75-.77-1.08-.77-1.08-1.13-.68-1.27,0-1.27,0-.21,1.21.75,1.36.75,1.36.19.07,1.01.08,1.01.08h0ZM176.7,103.25s-.25.18-.11.54c0,0,.63,1.73.6,2.3,0,0,1.4.25,1.59-.44,0,0,.04-.27-.19-.65,0,0-.24-.36-.3-1.02,0,0,.02-1.65-1.05-1.22-.21.12-.38.29-.54.48h0ZM175,100.5c-.23-.19-.57-.3-.87-.23-.68.15-.27.73-.27.73.27.51,1.17,1.38,1.17,1.38.79.59,1.42-.11,1.42-.11.59-.58-.18-.86-.18-.86-.44-.18-1.28-.9-1.28-.9h0ZM166.83,90.16s.25,2.45-.85,4.6c0,0-.82,1.16.03,1.9l1.69.98s.23.17.98.11c0,0,1.04-.26,1.39.2,0,0,.3.88.68,1.61,0,0,.77,1.77,2.04,2.33,0,0,1.01.23,1.32,1.11,0,0,.33.62.98.64,0,0,.49.16.81,1.24,0,0,.18.7.17,1.24,0,0-.83-.11-1.38.09,0,0-1.33.45-1.93-.65,0,0-1.15-1.98-2.01-1.68,0,0-1.72.57-2.93-.68,0,0-1.67-1.82-4.02-1.45,0,0-2.65.54-3.48-.07,0,0-1.67-.87-2.3-1.09,0,0-.77-.23-.85-1.07,0,0-.47-1.18-.81-1.58h1.26s1.15,1.91,3.09,2.49c0,0,1.06.43,3.2.08,0,0,3.07-.69,5.76,2.21,0,0,.37.53.89.32,0,0-1.49-2.54-4.76-3.14,0,0-1.07-.23-1.96-.08,0,0-4.4.13-6.44-4.2,0,0,.22-3.69-.75-4.57,0,0-.38-.12-.3.6,0,0,.67,3.87-.59,4.62,0,0-.73.57-2.08.36,0,0-2.05-.49-3.71-.2,0,0-2.56.61-4.76.33,0,0,.57-.87.46-1.92,0,0-.31-.75-.68-.27,0,0-.85,2.8-3.16,3.64,0,0-2.07.75-2.03,3.37,0,0,.32.36,3.06,1.33,0,0,1.02.32,1.35-.44,0,0,1.32-2.83,2.47-2.74l2.16.18s.74.19.19.78c0,0-.74.98-1.04,1.57,0,0-.09.5-.78.39,0,0-.96-.48-1.51,1.31,0,0-.5.9-1.34,1.18,0,0-.79.26-1.53-.15,0,0-3.57-1.31-4.19-1.77,0,0-.77-.43-1.38-.22,0,0-1.07.25-1.51-.59l-1.11-1.71s-.24-.42-.21-.95c0,0-.1-.52.34-1.06,0,0,.42-.44.48-.76l.79-1.85s.32-.49.67-.7l1.05.08s-.72,1.85-1.25,2.6c0,0-.72,1.1-.68,1.79,0,0,.05.49.24.69,0,0,.24.39.34.58,0,0,.32.69.58.85,0,0,.45.26.56.28,0,0,.2.05.05-.29,0,0-.59-1.24-.55-1.9,0,0-.11-.69.37-1.1,0,0,1.15-1.81,1.31-2.35,0,0,.36-.72.55-.85,0,0,.4-.53-.25-.77,0,0-1.61-.36-1.9-.56,0,0-.77-.23-1.28-1.85,0,0-.69-1.88-.68-3.04,0,0-1.36,2.62.81,5.28,0,0-1.71.5-2.42,0,0,0-2.13-.31-2.55-.43,0,0-.54-.13-.23.25,0,0,.64.92.7,1.51,0,0,.04.48.43.76,0,0,1.21.85,1.32,1.66,0,0,.26.78-.28.6,0,0-.73-.34-.98,0,0,0-.07.04.21.35,0,0,.73.63.78,1.48,0,0-.13.98-.39,1.3,0,0-.33.45-.85.31,0,0-.14-.11-.39-.04,0,0-.26,0-.93-.23,0,0-1.02-.28-1.35-.4,0,0-1.29-.46-1.93-.43,0,0-.41-.05-.94.06,0,0-1.62.18-2.69-1.01,0,0-.82-.65-1.1-.02,0,0-1.97,2.64-5.15,1.94,0,0,2.53-1.04,3.19-2.46,0,0,.09-1.2,1.41-2.88,0,0,.4-.56.01-.7,0,0-.23-.17-.72.33,0,0-1.26,1.21-1.71,2.32,0,0-1.57,2.36-3.82,1.57,0,0,1.77-.68,2.6-1.96,0,0,.51-1.72,2.24-3.01,0,0,.07-1.94.87-3.03,0,0,.41-1.82.52-2.24,0,0,.43-1.6.43-2.04,0,0-.14-2.09,1.2-3.71,0,0,.9-1.74,2.31-2.95,0,0,1.07-1.32,1.86-2.13,0,0,1.04-1.22,3.32-2.82,0,0,1.03-.75,1.79-1.56,0,0,4.02-2.89,6.92-.57,0,0,2,1.36,3.68,1.79,0,0,3.44.4,4.9,2.79,0,0,.13.44,1.51.61,0,0,3.04-.37,5.29,2.63,0,0,1.04,1.02,3.1,1.26,0,0,3.36-.34,5.55,2.23,0,0,5.52,4.82,8.82,1.69,0,0,1.71-1.62-.25-4.54,0,0-1.24-1.49-3.35-3.05,0,0-1.71-1.21-.93-3.08,0,0,.41-1.81,2.98-1.86,0,0,3.22-.62,4.52-2.25,0,0,1.46,5.12-4.25,5.04,0,0-1.49.22-.97,1.4,0,0,.73,1.01,1.71,1.38,0,0,1.72.75,2.5,3.26,0,0,1.74,4.39-2.51,6.08-1.64.56-3.52.4-5.2.1h0Z"/>
    <path class="st2" d="M65.89,143.49h8.49s-.35-4.01-4.19-4.01-4.3,4.01-4.3,4.01h0ZM70.32,134.65c11.44,0,10.97,11.14,10.97,11.14v1.77h-15.51c0,2.53,2.12,4.72,5.01,4.72s4.36-2.77,4.36-2.77l5.48,2.71c-2.53,3.83-5.95,5.36-9.79,5.36-11.91,0-12.15-9.9-12.15-11.14s.18-11.79,11.61-11.79h0ZM95.79,151.34h0c-.35,0-4.78.06-4.78-5.36s4.84-5.6,4.84-5.6c0,0,5.42.18,5.42,5.48s-5.13,5.48-5.48,5.48h0ZM100.97,120.84v16.35s-3.3-2.53-7.08-2.53-10.14,2.65-10.14,11.02,5.42,11.56,10.08,11.56,7.25-3.07,7.25-3.07v2.72h6.72v-36.05h-6.84ZM146.31,135.77h6.84v12.09s.24,4.07,4.07,4.07,3.77-4.07,3.77-4.07v-12.03h6.9v12.44s.89,9.73-10.49,9.73-11.08-8.55-11.08-10.08v-12.15h0ZM171.87,120.84h6.75v36.05h-6.75v-36.05h0ZM183.34,120.84h6.66v36.05h-6.66v-36.05h0ZM132.6,150.86h-6.4v-22.55h3.42s4.65-.35,4.65,3.7-3.7,3.7-3.7,3.7h-2.13v6.08s3.07,0,4.15,0,4.56.53,4.56,4.52-4.56,4.56-4.56,4.56h0ZM138.35,138.07s3.12-2.43,3.12-7.03-3.35-8.76-10.47-8.76h-11.93v34.61h14.7s10.53-.12,10.53-9.64c0-5.53-2.15-7.64-5.95-9.18h0ZM34.06,121.54v35.35h7.13v-28.61h3.36s5.25-.24,5.25,4.54-4.66,4.66-4.66,4.66h-1.71v8.14l7.13,11.27h8.37l-9.96-14.45s8.19-.71,8.19-9.61-6.19-11.29-14.44-11.29h-8.67Z"/>
  </g>
</svg>