<?xml version="1.0" encoding="UTF-8"?>
<svg id="Capa_1" xmlns="http://www.w3.org/2000/svg" version="1.1" viewBox="0 0 230 230">
  <!-- Generator: Adobe Illustrator 29.8.1, SVG Export Plug-In . SVG Version: 2.1.1 Build 2)  -->
  <defs>
    <style>
      .st0 {
        fill: #fcd500;
      }

      .st1 {
        fill: #e31f21;
      }
    </style>
  </defs>
  <rect width="230" height="230"/>
  <g>
    <path class="st1" d="M115.03,48.76c-39.53,0-71.57,32.04-71.57,71.57,0,4.82.48,9.52,1.38,14.08h0l22.21,16.17,3.22,27.23h36.91c1.95,2.11,4.74,3.43,7.84,3.43s5.89-1.32,7.84-3.43h37.3v-3.23l2.84-24,22.21-16.17c.91-4.56,1.38-9.25,1.38-14.07,0-39.53-32.04-71.57-71.57-71.57h0Z"/>
    <path class="st0" d="M115.03,169.12c.78,0,1.71-.07,3.98-1.68,2.27-1.61,3.15-2.33,3.15-2.33h26.34l2.52-21.31,22.03-16.04c1.98-7.47,0-15.74-1.83-19.69l-38.14,38.66,37.1-45.94c-1.53-5.53-4.01-10.94-9.35-15.52l-33.4,57.83,29.58-63.3c-4.64-5.47-8.14-8.14-15.27-10.82l-20.49,71.76,14.93-74.67c-4.45-2.16-8.99-4.5-18.2-3.73l-2.95,77.66-2.95-77.66c-9.2-.76-13.74,1.57-18.2,3.73l14.93,74.67-20.49-71.76c-7.13,2.67-10.62,5.34-15.27,10.82l29.58,63.3-33.4-57.83c-5.34,4.58-7.83,9.99-9.35,15.52l37.1,45.94-38.14-38.66c-1.83,3.95-3.81,12.23-1.83,19.69l22.03,16.04,2.52,21.31h26.34s.88.72,3.15,2.33c2.27,1.61,3.2,1.68,3.98,1.68h0Z"/>
  </g>
</svg>