<?xml version="1.0" encoding="UTF-8"?>
<svg id="Capa_1" xmlns="http://www.w3.org/2000/svg" version="1.1" viewBox="0 0 230 230">
  <!-- Generator: Adobe Illustrator 29.8.1, SVG Export Plug-In . SVG Version: 2.1.1 Build 2)  -->
  <defs>
    <style>
      .st0 {
        fill: #ce3924;
      }
    </style>
  </defs>
  <rect width="230" height="230"/>
  <path class="st0" d="M38.48,124.72c2.15.02,3.87-4.32,3.92-9.76h0v.08c-1.27.07-2.62.13-3.97.13-1.35-.01-2.7-.1-3.98-.19h0v-.08c.11,5.44,1.88,9.8,4.03,9.82h0ZM38.4,110.81c1.27,0,2.47.02,3.66-.05h0c-.58-3.81-2.02-6.46-3.69-6.47-1.67-.01-3.09,2.62-3.62,6.42h0c1.19.09,2.39.1,3.66.11h0ZM40.18,129.93c11.93-.45,21.2-7.22,21.15-15.53-.01-2.88-1.06-5.52-2.98-7.79h0v-.08c-.14,3.88-5.69,7.02-13.48,8.21h0c0,.23.08.47.08.7.04,6.99-2,12.88-4.77,14.49h0ZM38.35,100.41c2.86.02,5.27,4.23,6.18,10.07h0c5.48-.81,9.29-2.72,9.28-4.98-.02-2.95-6.95-5.49-15.46-5.55-8.51-.07-15.42,2.37-15.4,5.32.01,2.25,3.84,4.22,9.33,5.12h0c.84-5.82,3.21-9.99,6.07-9.97h0ZM11.94,114.65c-.05-9.32,11.76-16.76,26.39-16.65,14.64.11,26.53,7.74,26.58,17.06.05,9.24-11.76,16.76-26.39,16.65-14.63-.11-26.53-7.81-26.58-17.06h0ZM36.84,129.91c-2.79-1.65-4.89-7.57-4.93-14.56,0-.23,0-.47.08-.7h0c-7.8-1.3-13.39-4.53-13.57-8.41h0v.08c-1.9,2.24-2.92,4.87-2.9,7.74.05,8.31,9.39,15.22,21.24,15.85h.08ZM133.98,126.49v-8.82l9.54-14.46h-6.39l-5.94,9.88-6.05-9.88h-6.39l9.68,14.46v8.82h5.55ZM105.45,122.68c4.1.03,7.32-3.43,7.29-7.73-.03-4.3-3.28-7.81-7.38-7.84-4.02-.03-7.24,3.43-7.21,7.73.02,4.3,3.28,7.81,7.3,7.84h0ZM92.39,114.79c-.04-6.82,5.77-12.27,12.94-12.21,7.26.05,13.13,5.58,13.17,12.41.04,6.75-5.77,12.19-13.02,12.14-6.78-.05-13.05-5.28-13.09-12.33h0ZM83.31,107.58v18.85l-5.63-.04v-18.81h-7.65l-.02-4.3h20.9l.03,4.3h-7.62ZM207.73,117.32l-3.44-8.55h-.08l-3.42,8.5,6.94.05h0ZM199.24,121.27l-2.1,5.21h-6.39l10.04-23.24h6.86l10.31,23.24h-6.47l-2.16-5.21h-10.1ZM156.96,122.68c4.02.03,7.32-3.43,7.29-7.73-.02-4.3-3.36-7.81-7.38-7.84-4.02-.03-7.24,3.43-7.21,7.73.02,4.04,3.08,7.81,7.3,7.84h0ZM143.82,114.79c-.04-6.82,5.84-12.27,13.02-12.21,7.26.05,13.12,5.58,13.16,12.41.04,6.75-5.77,12.19-13.02,12.14-6.77-.05-13.12-5.26-13.16-12.33h0ZM184.95,107.58v18.85l-5.63-.04v-18.81h-7.65l-.02-4.3h20.9l.03,4.3h-7.62Z"/>
</svg>