<?xml version="1.0" encoding="UTF-8"?>
<svg id="Capa_1" xmlns="http://www.w3.org/2000/svg" version="1.1" viewBox="0 0 230 230">
  <!-- Generator: Adobe Illustrator 29.8.1, SVG Export Plug-In . SVG Version: 2.1.1 Build 2)  -->
  <defs>
    <style>
      .st0 {
        fill: #fffce1;
      }

      .st1 {
        fill: #be2b31;
      }

      .st2 {
        fill: #c79e00;
      }
    </style>
  </defs>
  <rect width="230" height="230"/>
  <g>
    <path class="st0" d="M170.67,89.98c-10.04-4.93-22.28-8.36-35.61-10.08-1.28-.83-3.16-1.59-5.91-1.93-.4-.05-.8-.08-1.2-.1.19-.53.11-1.13-.25-1.61-.31-.4-2.09-2.34-6.67-1.08-.57.16-1.12.4-1.63.71-.02-.81-.17-1.62-.53-2.36t0,0c-1.45-2.99-3.48-3.11-4.07-3.07-.77.01-2.56.36-3.88,3.08-.34.69-.49,1.46-.53,2.23-.45-.25-.92-.45-1.42-.58-4.58-1.26-6.36.68-6.67,1.08-.36.47-.44,1.08-.25,1.61-.4.01-.81.05-1.2.1-2.76.35-4.63,1.1-5.91,1.93-13.32,1.72-25.57,5.16-35.61,10.08-15.54,7.62-24.1,17.96-24.1,29.1s8.56,21.48,24.1,29.1c14.92,7.32,34.7,11.35,55.67,11.35s40.75-4.03,55.67-11.35c15.54-7.62,24.1-17.96,24.1-29.1s-8.56-21.48-24.1-29.1h0Z"/>
    <path class="st2" d="M102.63,105.96l.71-1.75h-1.89c-11.51,0-18.02,4.13-20.49,13-.95,3.43-.97,7.11-1,12.22v.41c0,.24-.05.43-.07.48l-.71,1.75h1.88s5.69.01,5.69.01l-.69-1.76s-.06-.23-.06-.47h0c0-1.06.2-1.77,1.35-3.22.9-1.14,3.09-2.22,5.21-3.27,1.32-.65,2.66-1.32,3.84-2.07-.01,3.05-.04,8.54-.04,8.54,0,.25-.04.43-.06.48l-.66,1.73,1.84.03h5.69l-.68-1.75c-.02-.05-.06-.24-.06-.48l.12-23.4c0-.24.04-.43.06-.48h0ZM96.47,110.08c0,1.51-.02,3.95-.02,3.95,0,1.24-3.34,2.95-5.77,4.21-1.52.78-3.07,1.59-4.38,2.47.99-6.24,4.59-10.02,10.17-10.62h0Z"/>
    <path class="st2" d="M133.46,104.03c-8.51,0-15.21,6.21-15.25,14.15-.02,3.12,1.03,6.09,2.96,8.52-.08,0-.17.01-.25.01,0,0-6.56,0-8.5,0,.01-2.27.1-20.26.1-20.26,0-.24.05-.43.06-.48l.71-1.75h-1.89s-3.82,0-3.82,0h-1.87l.68,1.75s.06.24.06.48c0,0-.12,23.4-.12,23.4,0,.24-.04.43-.06.48l-.71,1.75h1.89s14.57.01,14.57.01l1.06-3.41c2.77,2.37,6.36,3.66,10.24,3.66,8.51,0,15.21-6.21,15.25-14.15.02-3.64-1.4-7.08-4-9.69-2.87-2.88-6.82-4.47-11.12-4.47h0ZM133.34,126.88c-2.54,0-4.9-.97-6.65-2.72-1.62-1.63-2.51-3.75-2.5-5.97.02-4.8,4.17-8.71,9.25-8.71,2.54,0,4.9.97,6.65,2.72,1.62,1.63,2.51,3.75,2.5,5.98-.02,4.8-4.17,8.71-9.25,8.71h0Z"/>
    <path class="st2" d="M175.94,131.26c-.5.1-1.66,0-2.34-.3h0c-3.85-1.67-7.15-7.06-9.33-10.63,0,0-.19-.31-.36-.58,2.68-2.01,5.57-4.54,5.59-8.43v-.04c0-1.79-.67-3.44-1.89-4.67-1.1-1.11-3.21-2.43-7.02-2.43h-10.9l.68,1.75s.06.24.06.48l-.12,23.4c0,.24-.05.43-.07.48l-.7,1.75h1.88s5.69.01,5.69.01l-.68-1.75c-.02-.05-.06-.23-.06-.47,0,0,0-1.05,0-1.05,0-1.35.1-2.77,1.19-3.92.43-.46.96-.95,1.6-1.49.39.62.77,1.24.77,1.24,2.68,4.35,5.22,8.46,9.85,10.58,1.75.8,3.81.87,5.37.16,1.12-.5,1.93-1.39,2.26-2.48l.63-2.06-2.11.44h0ZM156.48,109.57h4.09c.93,0,1.71.26,2.17.73.32.32.48.71.48,1.17h0c0,1.61-1.65,3.11-3.43,4.48l-1.72,1.29c-.62.46-1.16.86-1.64,1.23.02-2.99.04-7.32.05-8.89h0Z"/>
    <path class="st2" d="M83.54,106.88c.1-.2.23-.47.31-.55l1.94-2.13h-7.96l-.11,1.16c-.01.14-.04.34-.12.5-.01.02-4.8,10.16-7.07,14.99-1.61-3.56-6.01-13.29-6.01-13.29-1.44-3.17-3.45-4.89-5.97-5.14-1.93-.19-4.53.75-5.55,2.64l-1.03,1.93,2.19-.05c2.31-.05,3.51.8,4.77,3.38l11.43,23.6s13.15-26.93,13.15-26.93c0,0,.06-.11.06-.11h0Z"/>
    <path class="st1" d="M120.78,127.8s-9.26,0-9.61,0c0-.35.11-21.37.11-21.37,0-.33.06-.68.15-.89l.1-.24h-4.35l.1.24c.09.22.14.56.14.89l-.12,23.4c0,.34-.06.68-.15.89l-.1.24h14.03l1.06-3.41-.32.1c-.26.08-.64.13-1.04.13h0Z"/>
    <path class="st1" d="M81.88,117.5c-.91,3.29-.93,6.91-.96,11.93v.41c0,.34-.06.68-.15.89l-.1.24h4.35l-.1-.24c-.09-.22-.14-.56-.14-.89,0-1.26.25-2.21,1.58-3.89,1.05-1.33,3.25-2.42,5.58-3.58,2.01-1,4.08-2.03,5.44-3.27,0,.75-.05,10.73-.05,10.73,0,.35-.05.68-.14.89l-.1.24h4.35l-.1-.24c-.09-.22-.14-.56-.14-.89l.12-23.4c0-.33.06-.67.15-.89l.1-.24h-.26c-11.09,0-17.08,3.76-19.43,12.2h0ZM84.81,123.26s0-.09,0-.13c0-.07,0-.11,0-.15,0,0,0,0,0,0,.45-8.61,5.17-13.85,12.63-14.07,0,.35-.03,5.12-.03,5.12,0,1.91-3.24,3.57-6.37,5.18-2.43,1.25-4.91,2.54-6.24,4.05h0Z"/>
    <path class="st1" d="M133.32,105.1c-7.92,0-14.14,5.75-14.18,13.08-.02,3.35,1.29,6.52,3.69,8.93,2.67,2.68,6.35,4.16,10.36,4.16,7.91,0,14.14-5.75,14.18-13.08.02-3.35-1.29-6.52-3.69-8.93-2.67-2.68-6.34-4.15-10.36-4.15h0ZM143.53,118.18c-.03,5.39-4.66,9.77-10.32,9.77-2.83,0-5.46-1.08-7.41-3.04-1.82-1.83-2.82-4.23-2.81-6.73.03-5.39,4.65-9.77,10.32-9.77,2.83,0,5.46,1.08,7.4,3.04,1.83,1.83,2.82,4.23,2.81,6.74h0Z"/>
    <path class="st1" d="M176.03,132.34c-.79.16-2.16,0-3-.37h0c-4.17-1.8-7.45-7.15-9.84-11.06,0,0-.74-1.2-.88-1.43,2.81-2.06,5.94-4.41,5.96-8.16v-.03c0-1.51-.54-2.86-1.57-3.89-1.37-1.37-3.52-2.1-6.24-2.1h-9.29l.1.24c.09.22.14.56.14.89l-.12,23.4c0,.34-.06.68-.15.89l-.1.24h4.35l-.09-.24c-.08-.21-.14-.55-.14-.88,0,0,0-1.06,0-1.06,0-1.09.02-3.11,1.49-4.67.67-.71,1.53-1.47,2.67-2.38.18.29,1.44,2.3,1.44,2.3,2.71,4.39,5.04,8.18,9.37,10.16,1.45.66,3.2.73,4.47.16.84-.38,1.42-1,1.66-1.8l.09-.29-.29.06h0ZM155.25,108.47h5.19c1.23,0,2.28.37,2.95,1.05.52.52.8,1.2.8,1.95,0,0,0,0,0,.02,0,2.07-1.86,3.79-3.85,5.33l-1.74,1.31c-1.35,1.01-2.74,2.03-3.41,2.66,0-.81.06-11.98.06-12.31h0Z"/>
    <path class="st1" d="M82.42,106.39c.15-.31.3-.6.48-.8l.27-.3h-4.48v.16c-.03.22-.08.56-.25.9,0,0-6.93,14.69-8.08,17.11-.3-.67-6.99-15.45-6.99-15.45-1.29-2.82-2.95-4.29-5.08-4.5-1.73-.17-3.78.78-4.47,2.07l-.14.27h.3c3.16-.08,4.55,1.47,5.78,3.99l10.45,21.57,12.15-24.9s.06-.12.06-.12h0Z"/>
    <path class="st2" d="M106.63,95.63v-3.34l-.22.2c-.38.41-1.03.74-1.79.9l.02.24s.72,0,.89,0v2.03c0,.27-.02.42-.43.54l.03.23h1.81l.04-.23c-.37-.15-.36-.31-.36-.57h0Z"/>
    <path class="st2" d="M113.4,94.4c.54-.21.82-.47.82-.78,0-.78-1.34-.99-2.13-.99-1.3,0-2.17.41-2.17,1.01,0,.36.3.64.84.84-.69.23-1.05.53-1.05.94,0,.76,1.24,1.1,2.4,1.1,1.43,0,2.44-.47,2.44-1.13,0-.56-.54-.8-1.15-.99h0ZM111.96,93.2c.71,0,1.16.18,1.16.47,0,.17-.25.37-.61.49-.04,0-.13-.02-.13-.02-.48-.09-1.37-.26-1.37-.58,0-.23.49-.35.95-.35h0ZM112.17,95.95c-.82,0-1.37-.24-1.37-.6,0-.24.43-.48.85-.58.04,0,.23.04.23.04.59.1,1.57.27,1.57.65,0,.32-.66.5-1.28.5h0Z"/>
    <path class="st2" d="M119.53,94.4c.54-.21.82-.47.82-.78,0-.78-1.34-.99-2.13-.99-1.3,0-2.17.41-2.17,1.01,0,.36.3.64.84.84-.69.23-1.05.53-1.05.94,0,.76,1.24,1.1,2.4,1.1,1.43,0,2.44-.47,2.44-1.13,0-.56-.54-.8-1.15-.99h0ZM118.1,93.2c.7,0,1.16.18,1.16.47,0,.17-.25.37-.61.49-.04,0-.13-.02-.13-.02-.48-.09-1.38-.26-1.38-.58,0-.23.49-.35.95-.35h0ZM118.31,95.95c-.82,0-1.37-.24-1.37-.6,0-.24.43-.48.85-.58.05,0,.23.04.23.04.59.1,1.57.27,1.57.65,0,.32-.66.5-1.28.5h0Z"/>
    <path class="st2" d="M125.04,95.63v-3.34l-.22.2c-.38.41-1.04.74-1.79.9l.02.24s.72,0,.89,0c0,.2,0,2.01,0,2.03,0,.27-.02.42-.43.54l.03.23h1.81l.04-.23c-.37-.15-.36-.31-.36-.57h0Z"/>
    <path class="st2" d="M169.84,91.6c-9.26-4.54-20.44-7.8-32.63-9.58.34.54.46.95.49,1.08.12.48.02.97-.24,1.36,23.8,3.64,42.5,12.9,49.45,24.56-3.58-5.26-9.98-10.07-18.85-14.05-9.64-4.32-21.43-7.32-34.28-8.8l-1.91.7c32.89,3.41,57.47,16.57,57.47,32.23,0,18.25-33.36,33.09-74.36,33.09s-74.36-14.84-74.36-33.09c0-15.67,24.59-28.82,57.49-32.23l-1.91-.7c-12.86,1.48-24.66,4.48-34.3,8.8-8.69,3.89-15,8.58-18.62,13.72,7.11-11.5,25.68-20.62,49.24-24.22-.26-.39-.36-.87-.24-1.36.03-.12.15-.54.49-1.08-12.19,1.78-23.37,5.04-32.63,9.58-14.88,7.3-23.08,17.06-23.08,27.49s8.2,20.18,23.08,27.49c14.67,7.2,34.15,11.16,54.84,11.16s40.17-3.96,54.84-11.16c14.88-7.3,23.08-17.06,23.08-27.49s-8.2-20.18-23.08-27.49h0ZM115,155.39c-33.82,0-62.46-10.93-71.71-25.89,3.62,5.13,9.93,9.82,18.62,13.72,14.18,6.36,33.04,9.86,53.08,9.86s38.89-3.5,53.08-9.86c8.87-3.98,15.27-8.79,18.85-14.05-9.02,15.13-37.85,26.23-71.91,26.23h0Z"/>
    <path class="st2" d="M114.42,90.12c-4.92-4.3-14.78-7.65-14.78-7.65,0,0,4.93-.84,14.66,6.31-.16-1.09-.5-2.09-.96-3,.03-.07.05-.12.06-.13-1.69-3.5-6.34-7.6-6.34-7.6,0,0,2.93.67,6.6,6.84,1-2.28-1.99-7.19-5.14-8.05-3.71-1.02-4.87.48-4.87.48l3.33,3.08c-1.95-.71-4.03-.97-5.92-.73-6.35.8-7.12,3.85-7.12,3.85l20.47,7.48s0-.84,0-.88h0Z"/>
    <path class="st2" d="M128.94,79.66c-1.9-.24-3.98.02-5.92.73l3.33-3.08s-1.16-1.5-4.87-.48c-3.15.87-6.14,5.77-5.14,8.05,3.67-6.17,6.6-6.84,6.6-6.84,0,0-4.65,4.11-6.34,7.6,0,0,.03.06.06.13-.46.91-.8,1.9-.96,3,9.74-7.15,14.66-6.31,14.66-6.31,0,0-9.85,3.35-14.78,7.65,0,.03,0,.84,0,.88l20.47-7.48s-.77-3.05-7.12-3.85h0Z"/>
    <path class="st2" d="M117.33,74.28c-1.12-2.31-2.48-2.12-2.48-2.12h0c-.23,0-1.39.05-2.39,2.12-.95,1.96.1,5.66,1.63,6.19-1.36-4.61-.42-6.37-.42-6.37,0,0,.5,3.62.9,6.59,0,0,.12.03.23.06v.05s.04-.01.09-.03c.05.01.09.02.09.03v-.05c.11-.03.22-.06.23-.06.29-2.53.9-6.59.9-6.59,0,0,.95,1.76-.42,6.37,1.53-.53,2.58-4.23,1.63-6.19h0Z"/>
    <path class="st2" d="M82.57,137.31c-.51-.09-1.05-.16-1.58-.16-1.78,0-3.05.86-3.05,2.17s1.27,2.18,3.32,2.18c.45,0,.91-.05,1.31-.19l.44-.73h-.03c-.55.23-1.2.4-1.85.4-1.34,0-2.21-.83-2.21-1.75s.84-1.55,2.04-1.55c.57,0,1.13.14,1.61.36v-.73h0Z"/>
    <path class="st2" d="M88.4,139.38v1.14c0,.28.06.74-.38.86v.02h1.66v-.02c-.44-.12-.39-.58-.39-.86v-2.38c0-.28-.05-.74.39-.86v-.02h-1.66v.02c.44.12.38.58.38.87v.78h-3.14v-.78c0-.29-.05-.75.38-.87v-.02h-1.65v.02c.44.12.38.58.38.86v2.38c0,.28.05.74-.38.86v.02h1.65v-.02c-.44-.12-.38-.58-.38-.86v-1.14h3.14Z"/>
    <path class="st2" d="M94.15,137.15c-1.83-.03-3.26.97-3.26,2.17,0,1.29,1.45,2.19,3.18,2.19s3.2-.93,3.2-2.22c0-1.13-1.29-2.14-3.12-2.13h0ZM94.09,137.6c1.37,0,2.18.89,2.18,1.81s-.84,1.64-2.17,1.64-2.23-.91-2.23-1.79c0-.95.86-1.66,2.21-1.66h0Z"/>
    <path class="st2" d="M103.01,137.31c-.51-.09-1.05-.16-1.58-.16-1.78,0-3.05.86-3.05,2.17s1.27,2.18,3.32,2.18c.45,0,.91-.05,1.31-.19l.44-.73h-.03c-.55.23-1.2.4-1.85.4-1.34,0-2.21-.83-2.21-1.75s.84-1.55,2.04-1.55c.57,0,1.13.14,1.61.36v-.73h0Z"/>
    <path class="st2" d="M107.61,137.15c-1.83-.03-3.26.97-3.26,2.17,0,1.29,1.45,2.19,3.18,2.19s3.2-.93,3.2-2.22c0-1.13-1.29-2.14-3.11-2.13h0ZM107.55,137.6c1.37,0,2.18.89,2.18,1.81s-.84,1.64-2.17,1.64-2.23-.91-2.23-1.79c0-.95.86-1.66,2.21-1.66h0Z"/>
    <path class="st2" d="M113.31,140.89v-2.74c0-.28-.06-.75.38-.87v-.02h-1.66v.02c.44.12.39.58.39.87v2.37c0,.28.05.75-.39.86v.02h3.58l.45-.84h-.03c-.43.26-.95.41-1.54.38l-1.18-.06h0Z"/>
    <path class="st2" d="M120.5,139.85l.47.89c.23.44.3.51-.12.65v.02h1.78v-.02c-.5-.18-.65-.53-.85-.89l-1.81-3.23h-1.37v.02c.42.09.25.36.13.59l-1.45,2.63c-.19.36-.34.71-.84.89v.02h1.6v-.02c-.42-.11-.36-.3-.17-.65l.45-.89h2.19ZM120.24,139.38h-1.71l.86-1.59.85,1.59h0Z"/>
    <path class="st2" d="M125.27,137.71h.78c.29,0,.64.03.75.25h.03l.28-.75h-.03c-.11.04-.25.04-.4.04h-3.46c-.11-.01-.23-.01-.33-.04h-.03l-.3.75h.03c.27-.18.66-.25,1.03-.25h.77v2.81c0,.28.05.74-.38.86v.02h1.72v-.02c-.46-.19-.45-.44-.45-.8v-2.87h0Z"/>
    <path class="st2" d="M129.24,139.38h.64c.27,0,.64,0,.77.18h.03v-.67h-.03c-.1.04-.24.04-.38.04h-1.04v-1.17c.28-.04.58-.04.89-.04.4,0,.76.03,1.03.25h.03v-.74h-.03c-.11.04-.26.03-.41.03h-2.78v.02c.44.12.39.58.39.87v2.37c0,.28.05.75-.39.86v.02h3.63l.39-.83h-.03c-.43.28-1.03.41-1.61.37l-1.11-.08v-1.49h0Z"/>
    <path class="st2" d="M132.84,137.26v.02c.44.12.38.58.38.87v2.37c0,.28.06.75-.38.86v.02h1.66v-.02c-.44-.11-.39-.57-.39-.86v-2.82c.2-.03.39-.04.59-.05.58-.02,1.12.25,1.12.7,0,.59-.81.82-1.51.9l.8.89,1.06.95c.26.23.55.32,1.01.32h.8c-.5-.23-1.04-.55-1.41-.88l-1.25-1.14c.71-.12,1.38-.55,1.38-1.11s-.63-1.01-1.8-1.01h-2.07Z"/>
    <path class="st2" d="M138.06,137.05l2.37-.52-.48-.46-1.89.98h0ZM138.8,140.52c0,.28.05.75-.38.86v.02h1.65v-.02c-.43-.12-.38-.58-.38-.86v-2.37c0-.28-.05-.75.38-.87v-.02h-1.65v.02c.44.12.38.58.38.87v2.37h0Z"/>
    <path class="st2" d="M144.84,139.85l.47.89c.24.44.31.51-.12.65v.02h1.78v-.02c-.5-.18-.65-.53-.85-.89l-1.81-3.23h-1.38v.02c.42.09.25.36.13.59l-1.45,2.63c-.19.36-.34.71-.84.89v.02h1.6v-.02c-.42-.11-.36-.3-.17-.65l.45-.89h2.19ZM144.59,139.38h-1.71l.86-1.59.85,1.59h0Z"/>
    <path class="st2" d="M151.44,137.3c-.42-.09-.86-.14-1.3-.14-1.06,0-2.18.3-2.18,1.1,0,1.34,2.99,1.16,2.99,2.14,0,.44-.75.66-1.24.66-.68,0-1.39-.2-1.91-.52l.25.79c.5.13,1.03.19,1.56.19,1.36,0,2.33-.63,2.33-1.3,0-1.17-2.99-1.15-2.99-2.02,0-.43.63-.57,1.12-.57s1.02.14,1.36.4v-.71h0Z"/>
  </g>
</svg>