<?xml version="1.0" encoding="UTF-8"?>
<svg id="Capa_1" xmlns="http://www.w3.org/2000/svg" version="1.1" viewBox="0 0 230 230">
  <!-- Generator: Adobe Illustrator 29.8.1, SVG Export Plug-In . SVG Version: 2.1.1 Build 2)  -->
  <defs>
    <style>
      .st0 {
        fill: #e40520;
      }
    </style>
  </defs>
  <rect width="230" height="230"/>
  <g>
    <polygon class="st0" points="49.5 144.8 45.19 157.31 40.78 144.8 35.34 144.8 42.06 163.09 48.03 163.09 54.79 144.8 49.5 144.8 49.5 144.8 49.5 144.8"/>
    <path class="st0" d="M82.39,153.97c0-2.73,2.21-4.94,4.94-4.94s4.94,2.21,4.94,4.94-2.21,4.94-4.94,4.94-4.94-2.21-4.94-4.94h0ZM92.07,137.34v8.98s-.02-.01-.02-.02c-1.5-1.11-3.34-1.8-5.33-1.8-5.06,0-9.15,4.22-9.15,9.44s4.1,9.43,9.15,9.43c2,0,3.85-.66,5.35-1.78v1.53h4.7v-25.77h-4.7Z"/>
    <path class="st0" d="M104.75,153.97c0-2.73,2.21-4.94,4.94-4.94s4.94,2.21,4.94,4.94-2.21,4.94-4.94,4.94-4.94-2.21-4.94-4.94h0ZM114.43,144.82v1.5s-.01-.01-.02-.02c-1.5-1.11-3.34-1.8-5.33-1.8-5.06,0-9.15,4.22-9.15,9.44s4.1,9.43,9.15,9.43c2,0,3.85-.66,5.35-1.78v1.53h4.7v-18.29h-4.7Z"/>
    <path class="st0" d="M131.94,144.82h-2.82s0-.59,0-1.11c0-1.16,0-2.63,1.85-2.63.47,0,.93.08.93.08v-4.25s-.77-.02-1.3,0c-4.32.17-6.23,1.64-6.23,5.96v1.95h-2.1v4.21h2.1v14.05h4.76v-14.05h2.82v-4.21h0Z"/>
    <path class="st0" d="M160.39,146.42c1.34-1.22,3.28-1.98,5.38-1.98,4.31,0,6.78,2.75,6.79,6.37v2.05s0,10.23,0,10.23h-4.85v-10.67c0-2.69-1.87-3.51-3.35-3.51-1.36,0-3.97.75-3.83,4.03v1.21s0,8.94,0,8.94h-4.86v-18.27h4.72v1.59h0Z"/>
    <path class="st0" d="M180.76,155.39c.23,2.3,2.15,3.97,4.5,3.97,1.86,0,3.09-.73,3.82-2.07h5.08c-.81,2.85-4.02,6.07-8.73,6.07-5.68,0-9.68-4.23-9.68-9.44s4.29-9.45,9.68-9.45,9.23,4.6,9.23,9.45c0,1.01-.11,1.46-.11,1.46h-13.78ZM189.53,151.85c-.41-2.07-2.15-3.27-4.26-3.27s-3.89,1.27-4.38,3.25h8.64Z"/>
    <path class="st0" d="M68.67,145.08c-1.74.38-3.05,1.93-3.05,3.78,0,.04.01.09.01.13,2.75.59,4.13,2.44,4.13,4.88,0,2.74-2.24,4.97-4.99,4.97s-5.31-2.29-5.31-5.68c0-4.14,3.55-8.03,8.61-8.15.09,0,.23,0,.38,0-1.11-.42-2.32-.66-3.59-.66-5.43,0-9.83,4.26-9.83,9.52s4.4,9.51,9.83,9.51,9.83-4.26,9.83-9.51c0-3.95-2.49-7.34-6.04-8.78h0Z"/>
    <path class="st0" d="M142.83,144.43c-5.43,0-9.84,4.26-9.84,9.52,0,3.95,2.5,7.34,6.05,8.78,1.74-.38,3.05-1.92,3.05-3.78,0-.04,0-.09-.01-.13-2.75-.59-4.13-2.44-4.13-4.88,0-2.75,2.24-4.97,4.99-4.97s5.31,2.29,5.31,5.68c0,4.14-3.55,8.03-8.61,8.15-.09,0-.24,0-.38,0,1.11.42,2.32.66,3.59.66,5.43,0,9.83-4.26,9.83-9.51s-4.4-9.52-9.83-9.52h0Z"/>
    <path class="st0" d="M126.88,68.9c-5.53,1.22-9.69,6.17-9.69,12.11,0,.13.03.28.03.41,8.74,1.87,13.15,7.81,13.15,15.64,0,8.8-7.14,15.93-15.87,15.93s-16.88-7.34-16.88-18.22c0-13.28,11.3-25.74,27.41-26.14.29,0,.75,0,1.22.03-3.54-1.35-7.39-2.1-11.43-2.1-17.28,0-31.29,13.66-31.29,30.5s14.01,30.5,31.29,30.5,31.29-13.66,31.29-30.5c0-12.68-7.93-23.55-19.23-28.15h0Z"/>
  </g>
</svg>