<?xml version="1.0" encoding="UTF-8"?>
<svg id="Capa_1" xmlns="http://www.w3.org/2000/svg" version="1.1" viewBox="0 0 230 230">
  <!-- Generator: Adobe Illustrator 29.8.1, SVG Export Plug-In . SVG Version: 2.1.1 Build 2)  -->
  <defs>
    <style>
      .st0 {
        fill: #342c7a;
      }
    </style>
  </defs>
  <rect width="230" height="230"/>
  <g>
    <path class="st0" d="M115,48.68c-36.63,0-66.32,29.69-66.32,66.32s29.69,66.32,66.32,66.32,66.32-29.69,66.32-66.32-29.69-66.32-66.32-66.32h0ZM115,175.38c-33.34,0-60.38-27.03-60.38-60.38s27.03-60.38,60.38-60.38,60.38,27.03,60.38,60.38-27.03,60.38-60.38,60.38h0Z"/>
    <path class="st0" d="M101.78,69.89c4.19-1.23,8.63-1.88,13.22-1.88s9.01.66,13.2,1.88h0l-13.2,29.27-13.22-29.26h0Z"/>
    <path class="st0" d="M140.22,75.34c4.95,3.16,9.27,7.22,12.73,11.94h0l-21.67,47.96-8.36-18.59h-15.84l-8.36,18.59-21.64-48h0c3.45-4.71,7.76-8.75,12.7-11.9h0l17.3,38.39h15.9l17.25-38.39h0Z"/>
    <path class="st0" d="M69.6,102.84c-1.04,3.88-1.59,7.96-1.59,12.16,0,18.42,10.59,34.36,26.02,42.06h0l-24.43-54.23h0Z"/>
    <path class="st0" d="M102,160.17c4.13,1.19,8.49,1.82,13,1.82s8.86-.63,12.99-1.82h0l-12.99-28.84-13,28.83h0Z"/>
    <path class="st0" d="M135.98,157.06c15.42-7.71,26.02-23.65,26.02-42.06,0-4.17-.54-8.21-1.56-12.06h0l-24.46,54.12h0Z"/>
  </g>
</svg>